<?xml version="1.0" encoding="utf-8"?>
<!-- Generator: Adobe Illustrator 19.0.0, SVG Export Plug-In . SVG Version: 6.00 Build 0)  -->
<svg version="1.1" id="Shape_1_1_" xmlns="http://www.w3.org/2000/svg" xmlns:xlink="http://www.w3.org/1999/xlink" x="0px" y="0px"
	 viewBox="0 0 144 144" enable-background="new 0 0 144 144" xml:space="preserve">
<g id="Shape_1">
	<g>
		<path fill-rule="evenodd" clip-rule="evenodd" d="M133.1,83v-2.4c0-0.4,0-0.9,0-1.3c-0.1-0.4,0-0.9,0-1.2c-0.1-0.5,0-1.1-0.1-1.6
			c0-0.6-0.1-1.2-0.1-1.7c-0.2-1.7-0.4-3.3-0.5-5c-0.2-1.4-0.4-2.8-0.7-4.1c-0.2-0.9-0.3-1.8-0.5-2.7c-0.7-2.5-1.1-5-1.8-7.3
			c-0.6-1.7-1-3.5-1.7-5.2c-0.2-0.5-0.3-1-0.5-1.5c-0.7-1.8-1.4-3.6-2.2-5.4c-1.9-4.2-4-8.5-6.4-12.2c-1.6-2.5-3.2-4.9-4.9-7.2
			c-0.7-0.9-1.5-1.8-2.2-2.7c-0.2-0.2-0.5-0.4-0.7-0.7c-0.8-1.1-1.8-1.9-2.6-3c-0.3-0.2-0.5-0.5-0.8-0.7c-0.3-0.4-0.7-0.7-1.1-1.1
			c-0.4-0.4-0.7-0.8-1.1-1.1c-0.4-0.4-0.8-0.8-1.2-1.2c-1.1-0.8-2.1-1.8-3.2-2.7c-0.3-0.2-0.6-0.5-0.9-0.8C98.5,9.2,97,8,95.4,7
			c-3.4-2.1-7-3.8-11.2-5.2C80.9,0.7,77-0.1,72.6,0c-0.3,0.2-1.1-0.1-1.5,0c-0.4,0.1-0.8,0-1.2,0.1c-1,0.1-2,0.2-3,0.4
			c-1.2,0.3-2.4,0.4-3.5,0.7c-2.3,0.7-4.6,1.4-6.7,2.3c-3.4,1.5-6.5,3.4-9.4,5.4C39.6,14.4,33.4,21.3,28,29.1c-0.7,1-1.2,2-1.9,3
			c-1.1,1.7-2.1,3.6-3.2,5.4c-0.6,1-1,2-1.5,3c-0.5,0.9-1,1.8-1.4,2.8c-0.9,2.1-1.8,4.2-2.7,6.4c-1.2,2.8-1.9,5.8-2.9,8.7
			c-0.7,2-1,4.2-1.5,6.3c-0.3,1-0.3,2-0.6,2.9c-0.2,1.2-0.4,2.4-0.6,3.6c-0.2,1.6-0.4,3.1-0.5,4.7c-0.1,0.5,0,1.1-0.1,1.6
			c0,0.7-0.1,1.4-0.1,2.1c-0.1,0.6-0.1,1.3-0.1,2v0.7c-0.1,0.6-0.1,1.8,0,2.4c0.1,0.6-0.1,1.2,0,1.7v1c0.1,1.2,0.2,2.4,0.2,3.6
			c0.2,0.8,0.1,1.8,0.3,2.6c0.1,0.6,0.1,1.4,0.3,2c0.4,1.8,0.6,3.7,1.1,5.5c0.4,1.4,0.7,2.8,1.1,4.1c1.1,3.3,2.3,6.5,3.8,9.4
			c0.4,0.8,0.8,1.7,1.3,2.5c1.1,1.7,2.1,3.5,3.3,5.1c0.9,1.3,2.1,2.5,3.1,3.8c0.5,0.6,1.3,1.3,1.8,1.9c1.2,1.2,2.4,2.4,3.8,3.5
			c0.4,0.3,0.7,0.7,1.1,1c1.3,0.9,2.6,1.9,3.9,2.7c3,1.9,6.2,3.3,9.7,4.7c2.2,0.9,4.6,1.4,7,2.1c1.2,0.3,2.4,0.5,3.6,0.8
			c1.5,0.2,3,0.5,4.5,0.7c0.6,0.1,1.3,0.1,1.8,0.2c1,0.2,2.1,0,3,0.2c1.4,0.1,2.7,0.1,4.1,0.2h1.1c0.7,0,1.7,0.1,2.3,0h1.6
			c1-0.2,2.2,0,3.1-0.2c0.5,0,1-0.1,1.5-0.1c1.4-0.2,2.8-0.3,4.2-0.5c1.1-0.2,2.3-0.4,3.4-0.6c3.3-0.8,6.6-1.4,9.5-2.6
			c1.1-0.4,2.1-0.7,3.2-1.2c2.6-1.1,5.1-2.3,7.4-3.8c9.5-6,16.1-14.1,20.8-24.9c1.3-3.1,2.2-6.4,3.2-9.9c0.3-1.2,0.4-2.4,0.7-3.7
			c0.3-1,0.3-2.2,0.6-3.3c0-0.4,0.1-0.8,0.1-1.3c0.2-0.7,0.1-1.5,0.3-2.2c0-0.3,0-0.6,0-0.9c0.1-0.5,0-1.2,0.1-1.7
			c0.1-0.5,0-1,0.1-1.5C133.2,84.8,133.1,83.8,133.1,83z M104.6,120.9c-0.3,0.5-0.8,0.7-1.3,0.9c-0.3,0.1-0.6,0.3-0.9,0.4
			c-0.6,0.1-1.3,0.2-1.9,0.4c-0.7,0.1-1.4,0.1-2.1,0.2c-1.1,0.3-2.4,0.3-3.7,0.3c-0.6,0-1.3,0-1.8,0c-0.9-0.1-2,0.1-2.8-0.1
			c-0.4-0.1-1.1-0.1-1.5-0.2h-0.8c-0.5-0.1-1,0-1.5-0.2c-1.3-0.3-2.9-0.4-4.1-0.7c-0.2,0-0.5,0-0.7,0c-1.1-0.3-2.3-0.3-3.3-0.6
			c-0.6-0.2-1.2-0.6-1.7-0.9c-0.8-0.5-1.5-0.9-2.3-1.4c-0.3-0.2-0.8-0.4-0.9-0.7c-0.3,0.1-0.4,0.3-0.6,0.4c-0.3,0.2-0.8,0.4-1.1,0.5
			c-0.9,0.4-1.9,0.6-2.8,0.9c-0.8,0.2-1.5,0.1-2.3,0.3c-0.4,0.1-0.9,0.2-1.3,0.2c0.2,0.2,0.5,0.2,0.7,0.5c3.5,0,7.6-0.2,9.8,1.1
			c1,0.6,1.7,1.4,2.4,2.2c0.1,0.2,0.5,0.2,0.7,0.4c0.2,0.3,0.4,0.6,0.6,0.9c0.5,0.6,1.5,1.9,1.7,2.8v0.7c0,1.2-0.1,1.3-0.6,2
			c-0.1,0.1-0.1,0.3-0.3,0.4c-0.4,0.3-1,0.5-1.5,0.7h-1c-0.7,0-1.6,0.1-2.2,0c-0.4-0.1-1,0-1.4,0h-1.1c-0.6,0-1.3,0-1.8-0.2h-0.7
			c-0.6-0.1-1.2,0-1.8-0.2c-0.7-0.2-1.6,0-2.4-0.2c-1.3-0.3-2.7-0.5-4.1-0.8l-0.6,0c-0.7-0.2-1.5-0.3-2.2-0.5
			c-2.9-1-5.7-2.4-8.5-3.6c-0.5-0.2-1-0.6-1.5-0.8c-1.4-0.6-2.5-1.3-3.7-2.1c-1.1-0.7-1.9-1.2-2.8-2.2c-0.2-0.2-0.5-0.4-0.7-0.7
			c-0.4-0.6-0.4-1.2-0.7-1.9c-0.1-0.2-0.3-0.9-0.2-1.3c0-0.2,0.1-0.5,0.2-0.7c0-0.3,0-0.7,0-1c0-0.2,0.2-0.4,0.1-0.7
			c-0.2-1.1-0.6-1.9-0.9-2.7c-0.2,0-0.3,0.1-0.4,0.1c-0.3-0.1-0.6-0.4-1-0.5c-1.2-0.4-3.5-0.8-4.1-1.6c-0.3,0-0.4,0.2-0.6,0.3
			c-0.6,0.2-1.5-0.3-1.7-0.6c-0.2-0.2-0.2-0.5-0.5-0.6c-0.1,0-0.2,0-0.3,0.1c-0.4,0.1-0.9,0-1.1-0.1c-0.2-0.1-0.6-0.5-0.7-0.7
			c0-0.1-0.1-0.3-0.1-0.4c0,0-0.5-0.5-0.6-0.5c-0.2-0.1-0.4,0-0.5-0.1c-0.3-0.2-0.8-1-0.9-1.5c-0.6,0-1-0.4-1.2-0.9
			c0-0.1,0-0.2,0-0.3V104c-0.1-0.1-0.4-0.3-0.4-0.4c-0.1-0.2-0.1-0.4-0.2-0.6c-0.1-0.1-0.3-0.2-0.4-0.4c-0.2-0.3-0.2-1-0.2-1.4
			c-0.6,0-1.1,0-1.2-0.5c-0.3-0.4,0.2-1.8,0.4-2c-0.1-0.1-0.4-0.1-0.5-0.1c-0.1-0.1-0.2-0.3-0.3-0.4c0-1.1,0.7-1.6,1.1-2.3
			c0.2-0.3,0.5-0.8,0.7-1c0-0.1-0.1-0.2-0.1-0.3c-0.2-0.7,0.6-1.4,0.9-1.7c-0.2-0.2-0.3-0.3-0.3-0.7c0.3-0.3,0.5-0.5,0.9-0.7
			c0.1-0.1,0.5-0.1,0.6-0.2c0,0-0.1-0.5,0-0.7c0.1-0.4,0.6-0.7,1-0.9c0.8-0.4,1.9-0.5,2.7-0.9c1.4-0.5,2.9-0.1,4,0.4
			c2.1,1,3.3,2.3,4.4,4.3c0.1,0.3,0.4,0.6,0.6,0.9c0.2,0.3,0.2,0.6,0.4,0.9c0.2,0.3,0.4,0.7,0.5,1c0.1,0.2,0.1,0.4,0.2,0.5
			c0,0.1,0,0,0,0.1c0.2-0.5,0.4-1,0.6-1.5c0.1-0.2,0.1-0.5,0.2-0.7c0.1-0.2,0.4-0.3,0.6-0.5c0.4-0.3,0.8-0.8,1.2-1.1
			c0.4-0.3,0.8-0.5,1.2-0.8c0,0-0.4-0.5-0.3-0.9c0.1-0.5,0.5-0.6,0.8-0.9c0.1,0-0.1-0.3-0.2-0.4c0-0.2,0-0.4,0-0.7
			c0.8-0.8,1.7-1,2.8-1.5c0.3-0.1,0.7-0.3,1-0.4c0-0.3-0.1-0.5,0-0.9c0.1-0.1,0.2-0.3,0.3-0.4c0.6-0.5,1.5-0.6,2.3-0.9
			c0.2-0.1,0.4-0.2,0.6-0.2c0-0.1,0-0.2,0-0.3c0.1-0.1,0.2-0.3,0.4-0.4c0.2-0.1,0.5-0.1,0.8-0.2c0.9-0.2,1.9-0.3,2.8-0.6
			c0.4-0.1,0.9,0,1.3-0.2c0.2-0.1,0.6-0.9,0.7-1.2c0.4-0.8,0.9-1.8,1.3-2.6c0.2-0.3,0.2-0.6,0.5-0.9c-0.2-0.9,0.1-1.8,0.7-2.3
			c-0.3-0.2-0.7-0.2-0.8-0.6c-0.3-0.5,0.4-1.6,0.7-1.8c0-0.2,0-0.4,0-0.7c0.2-0.8,0.8-1.5,1.3-2.1c0.1-0.1,0.2-0.3,0.3-0.4
			c1-0.7,1.9-1.4,3-2.1c0.4-0.3,0.9-0.4,1.4-0.6c0.2-0.1,0.4-0.3,0.7-0.4c0.2-0.1,0.4-0.1,0.5-0.2c0.2-0.1,0.3-0.4,0.4-0.6
			c0.5-0.7,1-1.9,2-2c-0.1-0.5-0.4-0.4-0.6-0.7c-0.3-0.4-0.5-0.8-0.5-1.4c-0.3-0.1-0.3-0.2-0.4-0.4c-0.2-0.3-0.3-0.5-0.4-0.9v-0.8
			c0-0.1-0.1-0.3-0.2-0.5c-0.3-0.7-0.6-2.1-0.4-3.2v-0.7c0.1-0.5,0.5-1,0.7-1.5c0.1-0.3-0.1-1,0-1.4c0.3-1,0.8-1.9,1.4-2.6
			c0.1-0.1,0.2-0.1,0.2-0.2c0.1-0.1,0.1-0.2,0.1-0.2c0.1-0.1,0.3-0.2,0.4-0.3c0,0,0-0.1,0.1-0.2h0.1c0.3-0.2,0.7-0.7,1.1-1
			c0.2-0.1,0.5-0.2,0.7-0.4h0.1c-0.5-0.4-1.7-0.5-2.4-0.7c-1.3-0.4-2.7-0.9-3.9-1.4c-0.7-0.3-1.4-0.4-2.1-0.8
			c-2.2-1.3-4.2-2.7-5.5-4.9c-0.1-0.2-0.3-0.3-0.4-0.5c0-0.1,0-0.1,0-0.2c-0.2-0.4-0.6-0.9-0.7-1.3c-0.2-0.5-0.3-1-0.5-1.6
			c-0.4-1.2-1.1-3.1-0.7-4.8c0.1-0.3,0-0.8,0-1.1c0-0.5,0-1.1,0-1.6c0.1-0.4,0.1-0.9,0.2-1.3c0.3-1.4,0.5-2.7,0.9-4.2
			c0.1-0.6,0.1-1.3,0.1-2c0-1.5-0.1-2.9-0.1-4.4c0-0.7,0-2,0.2-2.5c0.2-0.5,0.5-0.6,0.9-1c0.1,0,0.2,0,0.2,0
			c0.3,0.1,0.4,0.5,0.6,0.8c0.4,0.5,0.8,1,1.1,1.7c0.1,0.2,0.4,0.4,0.5,0.6c0.7,1,1.2,2.1,1.9,3.1c0.1,0.2,0.2,0.4,0.3,0.6
			c0.2,0.4,0.5,0.7,0.7,1.1c0.3,0.6,0.6,1.2,0.9,1.8c0.7,1.2,1.6,2.2,2.4,3.3c0.1,0,0.1,0.1,0.2,0.1c0.1,0.2,0.2,0.4,0.4,0.6
			c0.1,0.1,0.3,0.3,0.4,0.4c0.3,0.5,0.6,0.9,1,1.4c0.1,0.2,0.4,0.3,0.5,0.5c0.5,0.8,1,1.5,1.6,2.1c0.6,0.6,1.2,1.2,1.8,1.8
			c0.1,0.1,0.3,0.2,0.4,0.3c0.3,0.4,0.6,0.8,0.9,1.2c0,0.1,0,0.1,0,0.2c0.1,0.2,0.3,0.4,0.4,0.6c0.4,0.6,0.5,1.5,0.7,2.3
			c0,0.5,0,0.9,0,1.4c0.4,1.2,1.3,2.1,1.8,3.2c0.4,0.1,0.7-0.1,0.9-0.2c0.4,0,0.7-0.1,1.1-0.1c0-0.7,0.4-1.1,0.6-1.7
			c0.2-0.7,0.3-1.6,0.5-2.3c0-0.3,0-0.5,0-0.8c0.4-1.6,0.1-3.7,0.4-5.2v-0.4c0.5-1.9,0.9-3.9,1.4-5.8c0.3-1.1,0.4-2.2,0.6-3.3
			c0.2-1.1,0.1-2.7,0.1-3.9v-2c-0.1-0.5-0.2-2.1-0.1-2.6c0.1-0.7-0.1-1.6,0.1-2.2v-0.6c0.1-0.4,0.3-0.9,0.5-1.2
			c0.1-0.2,0.4-0.2,0.4-0.4c0.4,0,0.7-0.2,1.2,0c0.6,0.2,1.3,0.8,1.7,1.3c0.1,0.2,0.4,0.3,0.5,0.4c0.1,0.1,0.1,0.3,0.2,0.4
			c0.1,0,0.1,0.1,0.2,0.1c0.6,0.8,1.2,1.5,1.7,2.4c0.4,0.7,0.9,1.5,1.2,2.3v0.2c0.4,1.1,0.8,2.4,1.2,3.6c0.2,0.7,0.3,1.4,0.4,2.1
			c0,0.3,0,0.5,0,0.8c0.3,1.3,0.3,4.2,0,5.4v0.6c-0.2,0.7-0.3,1.5-0.5,2.1v0.3c-0.7,2.1-1.5,4.1-2.2,6.2c0,0.1,0,0.3,0,0.4
			c-0.1,0.4-0.3,0.9-0.4,1.3c0,0.1,0,0.3,0,0.4c-0.2,0.5-0.3,1.1-0.4,1.7c-0.2,0.5-0.5,1-0.5,1.7c0.9,0,1.5,0,2.1,0.3
			c0.1,0,0.2,0.2,0.3,0.2c0.2,0.1,0.5,0,0.7,0.1c0.3,0.2,0.8,0.4,1.2,0.4c0.1,0.3,0.2,0.3,0.2,0.7c0.2,0.1,0.5,0.1,0.7,0.3
			c0.1,0.1,0.1,0.2,0.2,0.3c0,0.5,0,1-0.4,1.1c0.1,0.5,0.9,0.7,1.1,1.1h0.1c0,0.1,0,0.1,0,0.1c0.1,0.3,0.5,0.4,0.6,0.7
			c0,0.1,0,0.1,0,0.2c0.1,0.1,0.2,0.1,0.2,0.1c0.3,0.3,0.5,0.7,0.8,1c0.1,0,0.1,0,0.2,0c0.2,0.2,0.3,0.5,0.5,0.7
			c0.1,0.1,0.2,0.1,0.3,0.2c0.1,0.1,0.1,0.2,0.1,0.2c0,0,0.1,0,0.2,0.1c0,0.1,0.1,0.3,0.1,0.4c0,0.1,0.2,0.1,0.2,0.2
			c0.1,0.3,0,0.6,0.1,1c0.2,0.9,0.1,2.2,0.4,3.1c0.2,0.5,0.5,1.1,0.7,1.7c0.2,0.5,0,1.5,0.2,1.9c0.3,0.5,0.8,1,0.9,1.6
			c0,0-0.2,1.1-0.2,1.1c0,0-0.1,0.1-0.1,0.1c-0.1,0.3,0,0.7-0.2,1c0,0.1-0.2,0.4-0.2,0.5v0.2c-0.1,0.2-0.3,0.4-0.4,0.6
			c-0.3,0.6-0.8,1.1-1.2,1.7c0,0.1,0,0.1,0,0.2c-0.3,0.4-0.9,0.5-1.3,0.8c-0.2,0.1-0.4,0.3-0.5,0.4h-0.2c-0.2,0.1-0.4,0.3-0.6,0.4
			c-0.9,0.4-1.7,0.9-2.6,1.2c-0.4,0.1-0.7,0.2-1.1,0.3c-0.4,0.1-0.9,0.3-1.3,0.4c-0.2,0-0.5,0.1-0.7,0.1c-0.3,0.1-0.6,0.2-1,0.2
			c0.1,0.2,0.4,0.3,0.6,0.4c-0.1,0.1-0.2,0.1-0.4,0.1c0,0.2,0.2,0.3,0.2,0.5c0,0.4-0.1,0.7-0.1,1.1c0,0.1,0.2,0.3,0.2,0.4
			c0.2,0.6,0.3,1.2,0.5,1.8c0.1,0.3-0.1,0.6,0,1c0,0.1,0.1,0.1,0.1,0.2c0.3,0.1,0.7,0.2,1.1,0.3c1.5,0.6,2.8,1.2,3.6,2.6
			c1.1,1.7,1,4.4,0.2,6.3c-0.3,0.8-1,1.2-1.5,1.9c-0.4,0.6-0.7,1.1-1.1,1.7c-0.2,0.3-0.6,0.6-0.9,0.9c-0.2,0.2-0.4,0.5-0.6,0.6
			c0.2,0.3,0.5,0.4,0.7,0.7c0.6,0.8,1.2,1.6,1.5,2.7c0.2,0.5,0.2,1,0.4,1.5c0.3,0.8,0.5,1.6,0.7,2.5v1.4c0,0.9,0,1.8,0,2.8
			c-0.1,0.5-0.1,1.1-0.3,1.6c-0.3,1-0.8,1.7-1.2,2.6c-0.3,0.5-0.4,1.1-0.7,1.5c-0.6,1-1.5,2.1-2.4,2.8c-0.5,0.4-1,0.9-1.5,1.2
			c-0.4,0.3-1,0.5-1.3,0.9h0v0c1.2,0,2.5,0,3.5-0.2c0.6,0,1.3-0.1,1.9-0.1c0.6-0.1,2.5-0.1,3.1,0h1.1c0.6,0,1.3,0.1,1.8,0.2h0.7
			c0.7,0.2,1.5,0.2,2.2,0.4c1.1,0.5,1.8,1.5,2.6,2.3c0.5,0.5,1,0.9,1.3,1.5c0.2,0.3,0.2,0.7,0.4,1.1
			C105,119.2,105,120.4,104.6,120.9z M87.3,57.4c0.1,0,0.1,0.1,0.1,0.1c0,0,0.6,0.2,0.6,0.2c0.1,0.2,0.3,0.3,0.4,0.5
			c0.1,0.2,0,0.4,0.2,0.6c0,0,0.1,0,0.1,0v0.2c0,0,0.2,0.2,0.2,0.2c0.1,0.2,0.2,1.7,0.2,2.1c0.3,0,0.4-0.1,0.7-0.1
			c0-0.2,0.1-0.3,0.2-0.4v-1.2c0-1.3-0.2-2.3-0.7-3.2c0-0.1,0-0.2,0-0.3h-0.1c-0.1-0.2-0.1-0.4-0.2-0.6c0-0.1-0.2-0.1-0.2-0.2
			c0,0,0-0.1,0-0.2c-0.1-0.1-0.3-0.2-0.4-0.4c0,0,0-0.1,0-0.1h-0.1c-0.1-0.1-0.1-0.2-0.2-0.2c-0.4-0.3-0.9-0.5-1.3-0.7
			c-0.2-0.1-0.5,0-0.7-0.2c-0.7-0.4-1.4-0.6-2.4-0.6h-0.9c0,0,0,0.1,0,0.1c-0.2,0.1-0.5,0-0.7,0.1v0.1c-0.1,0-0.2,0-0.3,0v0.1
			c-0.1,0-0.2,0-0.3,0c-0.1,0.1-0.1,0.3-0.3,0.4v0.1h-0.1v0.1h-0.1v0.1c-0.2,0-0.2,0.2-0.4,0.2c-0.1,0-0.2,0-0.4,0v0.1
			c-0.1,0-0.2,0-0.2,0v0.1c-0.2,0.1-0.8,0-1.1,0v0.4c0.1,0,0.1,0,0.2,0v0.1c0.3,0,0.3,0.1,0.4,0.2h0.4v0.1h0.6
			c0.6,0,1.5-0.1,1.7-0.5h0.1c0,0.2-0.2,0.6-0.2,0.8c-0.2,0.3,0,0.9,0,1.3c-0.1,0.8-0.1,1.8,0.3,2.2v0c-0.2,0-0.5,0-0.7,0
			C81.2,59.3,81.1,59,81,59c-0.1,0-0.2,0-0.2,0c-0.2-0.1-0.5-0.5-0.5-0.7h-0.1c0,1.5,0.9,1.9,1.9,2.4c0.3,0,0.6,0,0.9,0v0.1
			c0.1,0,0.2,0,0.3,0v0.1h2c0.6-0.3,1.3-0.7,1.3-1.5C86.9,59.2,87.3,57.9,87.3,57.4z M89.2,75.7L89.2,75.7c0-0.4-0.2-1.5-0.4-1.7
			c0,0.3-0.1,0.9,0,1.1C88.9,75.4,89.1,75.4,89.2,75.7z M56.6,87.2L56.6,87.2C56.6,87.2,56.7,87.2,56.6,87.2L56.6,87.2z"/>
	</g>
</g>
</svg>
