<?xml version="1.0" encoding="utf-8"?>
<!-- Generator: Adobe Illustrator 19.0.0, SVG Export Plug-In . SVG Version: 6.00 Build 0)  -->
<svg version="1.1" id="Shape_1_1_" xmlns="http://www.w3.org/2000/svg" xmlns:xlink="http://www.w3.org/1999/xlink" x="0px" y="0px"
	 viewBox="0 0 144 144" enable-background="new 0 0 144 144" xml:space="preserve">
<g id="Shape_1">
	<g>
		<path fill-rule="evenodd" clip-rule="evenodd" d="M143.3,30.9V31h0.1C143.3,30.9,143.4,31,143.3,30.9z M143.7,86.1
			c0-0.1,0-0.1-0.1-0.1L143.7,86.1L143.7,86.1z M143.7,75.7c0-0.3,0.1-1.1,0.1-1.5c0-0.1-0.1-0.4-0.1-0.5c0-0.1,0.1-1.1,0.1-1.3
			c-0.1-0.4-0.2-0.7-0.1-1c0-0.1,0.1-0.4,0.1-0.5c0-0.1-0.1-0.3-0.1-0.5c0.1-0.8,0.1-2.4,0-3.2c0-0.2,0.2-0.8,0.1-1
			c0,0-0.1,0-0.1-0.1c0.2-0.6-0.1-1.2,0-1.7c0.1-0.9,0.1-1.9,0-2.8c0-0.4,0.1-0.8,0.1-1.1c0-0.3-0.2-1-0.1-1.3
			c0.2-1.4,0-3.6,0.1-4.6c0-0.4,0.2-1.4,0.1-1.8c-0.1-0.2-0.2-1.5-0.2-1.8c0-0.6,0.3-1.6,0.2-2h-0.1c0,0,0-1.3,0-1.4
			c0.1-0.4,0.1-1.2,0-1.6c-0.1-0.4,0.1-0.9,0.1-1c0-0.2-0.2-0.1-0.1-0.2c0.2-0.5,0.1-1,0-1.3c0.1-0.4,0.1-2,0-2.1
			c0.2-0.4-0.1-1.8,0-2.5c0,0-0.1-0.6-0.1-0.7c0.2-0.6,0.2-2.9-0.2-4c0.1-0.5,0-1.5,0-1.7c-0.1-0.5,0.2-0.8,0-1.1
			c0-0.2,0-0.2-0.1-0.2c0.2-1-0.7-2.5-1.3-2.9c-0.2-0.1-0.9-0.2-1-0.2c-0.4-0.2-0.9-0.3-1.4-0.1c-0.3-0.1-1-0.3-1.3-0.1h-0.1
			c0,0,0-0.1,0.1-0.1c-0.8,0-1.8-0.1-2.5-0.1c-0.5,0-0.8-0.3-1.2-0.1h-0.1c0,0,0-0.1,0.1-0.1c-1.7,0.1-3.4-0.2-5.1,0
			c-0.6,0.1-1.5-0.1-1.9-0.1c0,0,0,0.1-0.1,0.1c0,0-0.1-0.1-0.1-0.1c-0.3,0-2.3-0.2-2.4-0.1c-0.2,0-0.1,0-0.1-0.1
			c-0.6,0.2-1,0.1-1.7-0.1c-0.2,0-0.4,0.1-0.5,0.1c-0.4,0-0.6-0.1-1.1-0.1c-0.2,0-0.2,0.1-0.3,0.1c-0.9-0.2-2.3-0.2-3.2-0.1
			c-0.2,0-0.4,0-0.5-0.1c-0.4-0.1-0.6,0.1-1,0.1c-0.6-0.1-1.5-0.3-1.9,0c-0.4-0.2-2.3-0.2-2.6,0c-0.4-0.2-0.8-0.2-1.1-0.1
			c-0.1,0-0.3-0.1-0.5-0.1c-0.4,0.1-2.7-0.2-3.1,0.1c-0.1-0.1,0,0,0-0.2c-0.9,0.2-1.8-0.1-2.6,0.1c-0.8,0.1-1.8-0.2-2,0.1h-0.1
			c0,0,0-0.1,0.1-0.1c-0.2,0-0.6,0-0.6,0.1h-0.1c0,0,0-0.1,0.1-0.1c-0.8,0.1-1.3,0-2,0c-0.1,0-0.4,0.1-0.5,0.1
			c-0.1,0-0.1-0.1-0.3-0.1c0,0-0.3,0.1-0.4,0.1c-0.7-0.1-1.1,0-1.6-0.1c-0.1,0-0.5-0.1-0.7-0.1c-0.5,0.1-1.6,0.1-2.2,0
			c-0.3,0-0.5,0.1-0.8,0.1c-0.1,0-0.6-0.1-0.6-0.1c-0.5,0.1-1.4,0.2-1.7,0.1c-0.2,0-0.6-0.2-0.8-0.1c-0.2,0-0.9,0.3-1.4,0.2
			c-0.4-0.1-1-0.2-1.5-0.1c-0.3,0-1.6-0.1-1.9-0.1c-1.2,0.3-3.3,0.1-4.5,0.1c-0.1,0-0.2-0.1-0.4-0.1c-0.4,0-1.3,0-1.4,0
			c0,0-0.3,0.1-0.4,0.1c-0.7-0.1-1.6-0.2-2.1,0C77,27.2,76.3,27,76,27.1c-1.8,0.3-4.7,0.1-6.5,0c-0.8-0.1-1.4,0.1-1.9,0
			c-0.1,0-0.3,0-0.4,0.1c-0.6-0.1-1.1,0.1-1.7,0c-1.4-0.2-2.5,0-3.7-0.1c-1.1,0-1.8-0.2-2.5-0.1c-0.3,0.1-0.7-0.2-0.9-0.1
			c-1.2,0.2-3.4-0.1-4.9,0.1c-0.3,0-0.5-0.1-0.8-0.1c-0.4,0.1-1.5-0.1-2,0c-0.1,0-0.1,0.1-0.2,0.1c-0.4-0.1-1.4-0.2-1.7-0.1
			c-0.3,0.1-1.2,0.2-1.6,0.1c-0.2,0-1.1-0.1-1.1-0.1c-0.7,0.3-2.8,0.1-3.2,0c-0.2,0-0.1,0.1-0.2,0.1c-0.3-0.2-1.4,0-1.9,0
			c-1.2,0-2.1-0.2-3.1-0.1c0,0-0.2,0.1-0.2,0.1c-1.7,0-2.3-0.2-3.6,0c-0.3,0-0.9-0.1-1.1-0.1c-0.4-0.1-0.9,0.2-1.2,0.1
			c-0.7-0.1-1.5-0.2-2.2-0.1c-0.5,0.1-1.9-0.1-2.5,0.1c-0.2,0-1.3-0.2-1.4-0.2c0,0,0,0.1-0.1,0.1c-0.5,0.1-1.4-0.2-2,0.1
			c-0.1,0,0-0.1-0.2-0.1c-0.3,0-0.8,0.1-1,0.1c-0.3,0-0.8-0.1-1.3-0.1c-0.6,0.1-1.1,0-1.6,0c-1.3,0.1-2.8,0-3.7-0.2
			c-0.9-0.2-1.5,0.1-2.3-0.1c-0.4-0.1-0.7,0.1-1.1,0c-1.4-0.2-2.6-0.1-3.8-0.3v0.2c-0.6-0.2-3,0.5-3.5,0.8c-0.5,0.3-0.8,0.7-1.3,0.8
			c-0.1,0.4-1.2,1.5-1.5,2c-0.5,0.8-1.3,1.9-1.6,2.8c-0.2,0.5-0.2,1.1-0.2,1.4c-0.1,0.3-0.2,0.5-0.3,0.8c-0.1,0.3,0,1-0.1,1.3
			C0.1,36.8,0.2,36.9,0,37c0.1,0.1,0,0,0.1,0.1c-0.1,0,0,0-0.1,0.1c0.1,0.2,0,0.1,0.1,0.2c0,0.1-0.2,0.2-0.1,0.4c0,0,0.2,0,0.1,0.1
			c-0.1,0-0.2,0-0.1,0.2h0.1c0,0-0.1,0.1-0.1,0.1c0,0,0.2,0.1,0.2,0.2c0,1-0.1,1.9-0.1,2.5c0,0.2,0.1,0.5,0.1,0.8
			c-0.1,0.6,0.1,1.8,0.1,2.6c0,0.6,0.1,1.9,0,2.3c0,0.1-0.1,0.4-0.1,0.5c0.1,0.5,0,1.5,0,1.8c0,0.2,0,0.4,0.1,0.5
			c0.1,0.7,0.1,1.8,0,2.2c0,1.4,0,2.8,0.1,4.1c-0.2,1,0.2,2.6,0.1,3.7c-0.1,0.9,0.1,2.4,0.1,3.8c0,1.6-0.1,2.8-0.1,3.8
			c0,0.5-0.1,1.6,0,2c0.1,0.5,0.2,1.2,0.1,1.6c-0.1,0.7-0.2,2.3,0.1,3.5c0.1,0.4-0.1,1-0.1,1.5c0.2,0.9,0.1,3.4,0,4.6
			c-0.1,0.9,0.1,2.2,0.1,3.2c0,0.2,0.1,0.6,0.1,0.7c-0.1,0.4,0.2,1.4,0,2.2c-0.1,0.3-0.1,1-0.1,1.3c0,0.1,0.1,0.7,0.1,0.8
			c-0.1,0.5-0.1,1.9,0,2.5v1.9c0,1.6,0,2.3,0.1,3.1c0,0.2-0.1,0.6-0.1,0.9C1,98,0.7,99.7,0.7,101v1.7c0.2,1.1,0.1,3.2,0.1,4.7
			c0,1.4,0,2.7,0.1,3.5c0.1,0.6-0.2,1.4,0.1,1.8c0.1,0.5,0.8,0.7,1.1,1c0.9,0.8,2.1,1,3.4,1c0.6,0,1.7,0.2,2.2,0.1
			c0.9-0.2,1.6,0,2.4-0.1l0.8,0.1c0.1-0.2,0.2,0,0.5,0c0.2,0,1-0.2,1.5-0.1c0.9,0.1,1.9,0.2,2.6,0.1c0.3-0.1,0.7,0,0.8,0.1
			c0.4,0,3.2,0,3.5-0.1c0.4,0.1,1.1-0.1,1.4,0c1,0.2,2.6,0.3,3.5,0.1c1.1-0.2,2.7,0.1,4-0.1c0.4,0,0.7,0.1,1.1,0.1
			c0.5-0.1,1,0.1,1.5,0c0.9-0.1,2.2-0.1,2.9,0c0.5,0.1,1.3-0.2,1.8-0.1c0.1,0,0,0.1,0.1,0.1c0.4,0,0.8,0,1.3-0.1
			c0.8,0.1,2.8,0.1,3.8,0c1.1-0.1,2.1,0.1,2.8,0.1c0.8,0,1.4-0.1,2.2-0.1c0.2,0,0.7,0.1,0.8,0.1c0.7-0.1,2,0,2.5-0.1
			c0.1,0,0.6-0.1,0.7-0.1c0.6,0.1,1.5,0.2,2.1,0.1c1.1-0.1,2.1,0,3.2-0.1c0.4,0,0.6,0.1,0.8,0.1c0.1,0,0.2-0.1,0.2-0.1
			c0.3-0.1,0.9,0.1,1.3-0.1c0.1,0,0.1,0.2,0.4,0.1c0.3-0.1,0.6-0.1,0.9-0.1c0.5,0,1,0.2,1.3,0.1c0.4-0.1,1-0.1,1.5-0.1
			c0,0,0.7,0.1,0.8,0.1c0.8-0.1,1.8-0.2,2.4,0c0.1,0,0.2-0.1,0.2-0.1c0.2,0,0.5,0.1,0.7,0.1c0.1,0,0.5-0.1,0.7-0.1
			c0.7,0.1,2.7,0.1,3.4,0c0.7-0.1,2,0.1,2.6,0.1c0.8-0.1,2-0.1,2.8-0.1c0.3,0,0.8,0.2,1.1,0.1c1-0.2,2.5-0.2,3.3-0.1
			c0.4,0.1,0.7-0.1,1.1-0.1c0.4,0.1,0.8,0,1.3,0c0.1,0,0.3,0,0.4,0.1c0,0,0.4-0.1,0.4-0.1c1.1,0,1.9,0,3,0c0.4,0,1.1-0.1,1.4-0.1
			c0.2,0.3,0.6,0,1,0.1c0.6,0.1,2,0.1,2.7-0.1c0.4-0.1,0.7,0,1,0.1c0.4,0.1,0.6-0.1,0.8-0.1c0.8,0,2.1,0.1,2.5,0
			c0.2,0,0.5,0.1,0.7,0.1c0.9-0.1,2-0.1,3.1-0.1c0.3,0,0.7,0.1,0.8,0.1c0.6-0.1,1.6,0.1,2.2,0c0.5-0.1,1.1,0,1.7-0.1
			c0.2,0,0.4,0.1,0.5,0.1c0.6-0.1,1.3,0.1,1.9,0c1.1-0.1,2.2,0,3.4-0.1c1.2,0,2.8,0.2,3.6,0h2c2,0,3.1,0.2,4.4,0
			c0.5-0.1,1.7,0.2,2.2,0c0.5,0,2.7-0.1,2.7,0.1c0.7-0.1,1.4-0.1,2.3-0.1c0.3,0,0.7,0.1,0.9,0.1c0.8-0.2,3.4-0.2,4.2-0.1
			c0.9,0.2,1.9,0.3,2.5,0.1h1.2c0.2,0,0.5-0.1,0.7-0.1h0.8c0.7-0.2,1.7-0.8,2.3-0.8c0.3-0.3,1.4-1.1,1.7-1.1v-0.2
			c0.5-0.1,1.5-0.8,1.7-1.1h0.2c0.2-0.8,0.9-1.6,0.8-2.4c0-0.8-0.3-2.2-0.2-3.3c0-0.6,0.2-2.1,0-2.4c0-0.2,0-0.1,0.1-0.1
			c-0.1-0.3-0.2-1.4-0.1-1.7c0.1-0.3,0.2-1.1,0.1-1.6c-0.1-0.4-0.1-1-0.1-1.7c0-0.2,0.1-0.3,0.1-0.5c-0.3-2,0.1-5-0.1-6.6
			c0-0.2,0.1-0.5,0.1-0.7c0.1-0.5,0-1.8-0.2-2.2c0.1-0.3,0.1-0.5,0.1-0.7c0.1-0.1,0,0,0.1-0.1c-0.2-0.9-0.1-1.6,0-2.5
			c0-0.2-0.1-0.4-0.1-0.7c0.1-0.9,0-2.2,0.1-2.7c0-0.2,0-0.4-0.1-0.5c0.1-0.7,0-1.8,0.1-2.4c0-0.2-0.1-0.8-0.1-1
			c0-0.4,0.1-1.9,0.2-2C143.7,75.6,143.8,75.7,143.7,75.7z M2.8,106.3c-0.2,0.8,0.1,1.8-0.3,2.5c-0.1,0.1-0.2,0.2-0.3,0.4
			c-0.3-0.1-0.3-0.2-0.5-0.3c-0.1-0.8-0.2-1.5-0.4-2.3c0-0.2,0-0.4,0.1-0.7c-0.1-0.5-0.1-1.3-0.1-1.9c0-2.1,0.1-4.4,0.1-6.2
			c0-0.3-0.1-1.1-0.1-1.3c0-0.2,0.1-0.7,0.1-1v-1.2c0.2-0.8,0.1-1.8,0-2.6c0-0.2,0.1-0.6,0.1-0.9c0-1.6,0.1-2.8,0.1-4.1
			c0-0.8-0.1-1.4,0-2c0.1-0.4-0.1-0.9,0-1.3c0-1.1,0-2.2-0.1-3.2c0.1-0.5-0.1-1.3,0-1.8c0.1-0.6,0-1.3,0-1.9c0-0.6,0-1.2,0.1-1.7
			c0-0.3-0.1-0.7,0-1.1c0.1-0.5-0.1-1,0-1.4c0.1-0.5-0.1-1.1-0.1-1.6c0.1-0.4-0.1-1.3,0.1-2c0.1-0.4,0.1-2.2,0-2.8
			c-0.1-0.4,0.1-0.5,0.1-0.7c0-0.1-0.1-0.5-0.1-0.6c0-0.9-0.1-2.7,0-3.4c0-0.4,0.1-0.7,0.1-1.2c0-0.4-0.1-0.9-0.1-1.3
			c0.1-0.5-0.1-1.2,0-1.6c0.1-0.6,0.1-1.2,0-1.9c-0.1-0.7,0-1.6,0-2.4c0-0.2,0.1-0.5,0.1-0.5c-0.1-0.5-0.2-1.7-0.1-2.1
			c0-0.2,0.1-0.6,0.1-0.7c-0.1-0.4,0.1-0.9,0-1.3c-0.3-1.7,0-3.4-0.1-4.6c-0.1-1,0.1-2.2,0-2.8c-0.1-0.4,0.1-1,0.1-1.3
			c-0.2-1.3,0.1-2.9-0.1-4.1c0.1-0.1,0.2-0.2,0.3-0.3c0,0,0.1-0.1,0.2-0.1C2,35,2,34.9,2.1,35c0.6,0.3,0.2,2.4,0.3,3
			c0.1,0.4-0.2,1.3-0.1,2c0.2,1,0.1,2.4,0.1,3.1c-0.2,1.5,0.2,2.8,0.1,3.7c-0.1,0.5-0.1,1.3,0,1.7c0,0.7,0,1.4-0.1,2.1
			c0.2,1,0,2.6,0,3.9c0,0.4,0,1.1,0.1,1.6c0.1,0.3-0.1,0.7-0.1,0.8c0.2,1.2,0,2.9,0,4c-0.1,1.2,0.2,2.9,0.1,4.1c0,0.9-0.1,2-0.1,3
			v1.1c0.2,0.8,0.1,2.7,0.1,3.2c-0.1,0.4,0.1,0.8,0.1,1c0,0.3-0.1,0.9,0,1.4c0.2,0.7-0.2,1.7-0.1,2.3c0,1,0,2.1,0.1,3.1
			c0.2,1.3,0,4.5,0.1,6.9c0,3.2,0.1,6.6,0.2,9c0,0.8-0.1,1.6,0.1,2.6c0,0.1,0.1,1.1,0.1,1.4c0,0.2-0.1,0.5-0.1,0.8
			c0.3,1.1,0,2.6,0,3.7C2.9,105.2,2.9,105.8,2.8,106.3z M27.3,113.1h0.1v0.2C27.3,113.2,27.4,113.3,27.3,113.1z M53.6,113.5
			c-0.1,0-0.3-0.1-0.3-0.1c0,0,0,0.1-0.1,0.1c-0.2,0-0.7-0.1-1-0.1c-0.7,0.1-1.8,0.1-2.7,0.1c-0.9,0-1.7,0.1-2.4,0
			c-0.4,0-0.6,0.1-0.8,0.1c-0.6-0.1-0.9-0.1-1.5-0.1c-0.1,0-0.4,0.1-0.6,0.1c-0.8-0.2-2.8-0.1-3.5-0.1c-2.3,0.3-4.8-0.2-6.1,0
			c-0.4,0.1-0.7-0.1-1.1-0.1c-1.5,0.2-3.8,0.1-4.8,0.1c-0.4,0-1-0.1-1.3,0h-0.1c0.1-0.3,0.1-0.1,0.1-0.5c0.5,0.1,1.7,0,2.5,0
			c0.2,0,0.5-0.1,0.6-0.1c0.8,0.1,2.2,0.1,3.1-0.1c0.2,0,0.4,0.1,0.5,0.1c0.2,0,0.8-0.2,1.1-0.1c0.3,0,1-0.1,1.4-0.1
			c0.2,0,0.4,0.1,0.6,0.1c0.2,0,0.3,0,0.5-0.1c0.7,0.1,1.4,0,2,0.1c0.4,0,0.8-0.1,1.3-0.1c0.7,0,1.6,0.1,2.3,0.1
			c0.4,0,0.8-0.1,1.2,0c0.8,0.2,1.8-0.1,2.5-0.1c1.6,0.1,3.7-0.1,5,0.2c0.9,0.2,2-0.2,2.6,0.1c0,0.1,0,0.1,0.1,0.2
			C54.2,113.5,54,113.5,53.6,113.5z M122,113.8c-0.6,0-1.1,0.1-2,0c-0.1,0-0.4-0.1-0.6-0.1c-0.1,0-0.8,0.1-0.8,0.1
			c-0.7-0.1-1.5,0-2.2-0.1c-0.5,0-1.1-0.1-1.7,0c-1.8,0.2-4.1-0.1-5.3-0.1c-1.1,0.1-1.7,0-2.5,0c-0.5,0-1,0.1-1.4,0
			c-0.7-0.1-1.5,0.3-2-0.1c-0.2,0.2-0.7,0-0.8,0c-0.6,0.1-1-0.1-1.8,0.1c-0.5,0.1-1.6-0.1-2.3,0c-0.4,0.1-2.1,0.1-2.5-0.1
			c-0.1,0-0.3,0-0.4,0.1c-0.4-0.1-1.3,0-1.6-0.1c-1.1-0.1-2.4,0-3,0c-0.2,0-0.4,0-0.7-0.1c-0.7,0.1-1.6,0.1-1.9-0.1
			c-0.5,0.1-1.4,0.1-1.8,0c-0.2,0-0.6,0-0.7,0.1c-0.2,0-0.5-0.1-0.6-0.1c-0.3,0-0.9,0.1-1.3,0h-2.8c-0.4-0.1-0.9-0.1-1.2-0.1
			c-0.3,0-0.6,0.2-0.9,0h-0.1v-0.1c1.1,0,2.7,0.1,4-0.1c0.6-0.1,1.2,0.1,1.7,0c0.7-0.1,1.6,0.1,2.3-0.1c0.4-0.1,1.5,0,2,0.1
			c0.3,0.1,0.6,0,0.7-0.1c0.3,0,0.4,0.1,0.7,0.1c0.5-0.1,0.9-0.1,1.5-0.1c0.2,0,0.7,0.1,1.1,0.1c1-0.1,1.9,0,2.9-0.1
			c0.2,0,0.7,0.1,0.9,0.1c1.7-0.2,3.1,0.1,4.2-0.1c0.7-0.1,2.1,0.3,2.6-0.1c0.7,0,1.5,0.3,2.3,0.1c0.6-0.1,1.3-0.1,2.1-0.1
			c0.2,0,0.4,0.1,0.7,0.1c0.8-0.1,1.6,0,2.6,0c2-0.1,4.6,0,6.1-0.1c0.5,0,1,0.1,1.4,0.1c0.1,0,0.5-0.1,0.6-0.1
			c0.3,0.1,1.4,0.1,1.6,0.1h0.9c-0.2,0.3-1,0.3-1.6,0.3c0.2,0.2,1.4,0.3,1.9,0.3C122,113.7,122,113.7,122,113.8z M142.7,82.6
			c-0.1,0.5-0.2,1.6-0.1,2.2c0,0.1,0.1,0.4,0.1,0.7c0,0.1-0.1,0.7-0.1,0.8c0,0.2,0.1,0.7,0.1,1c0,0.4-0.1,1.1-0.1,1.4
			c0,0.8,0.1,2,0.1,2.5c0,0.2-0.1,0.5-0.1,0.7c0.1,0.6,0.1,1.5,0,1.9c-0.2,0.9,0.2,1.3,0.1,2.1c-0.2,1.7,0.1,3.2-0.1,5
			c0,0.6,0.1,1.3,0,1.7c-0.1,0.8-0.1,2.1,0,2.6c0.1,0.5-0.2,1-0.1,1.3c0.1,0.4,0.1,0.6,0.1,0.9c-0.2,1.6,0.2,2.3-0.5,3.4
			c-0.1,0.1,0,0.3-0.1,0.4c-0.9,0.8-2.2,0.7-3.3,1.2c-0.2-0.1-1.5,0-1.6,0c-0.2,0-0.9,0.2-1.1,0.1c-0.3-0.1-0.9-0.3-1.3-0.2
			c-0.6,0.1-1.7,0-2.4,0c-1,0-1.6,0.2-2.3,0c-0.7-0.2-1.5,0.3-1.9-0.1c0,0-0.1,0.1-0.1,0.1c-0.7-0.2-2.1-0.2-2.6-0.1
			c-1.2,0.1-2.3,0-3.4,0c-0.3,0-1,0.1-1.6,0c-1-0.2-2.1,0.2-2.9,0.1c-1.1-0.2-2.7,0.1-4.2,0.1c-0.2,0-0.5-0.2-0.8-0.1
			c-0.5,0.1-1.4,0-2.1,0c-1.1,0-2.1,0.1-2.9,0c-0.4,0-0.7,0.1-1.1,0.1c-0.8,0-1.7,0-2.5-0.1c-0.3,0-0.7,0.1-0.9,0.1
			c-0.8-0.1-2-0.1-2.9,0c-0.5,0.1-2.2,0.1-2.6,0c-0.2,0-0.4-0.2-0.7-0.1c-0.4,0.1-1.1,0-1.6,0c-0.1,0-0.4,0.1-0.5,0.1
			c0,0-0.4-0.1-0.4-0.1c-1.3,0-3,0-3.9,0.1c-0.2,0-0.3-0.1-0.4-0.1c-0.4-0.1-0.7,0.1-1.1,0.1c-0.2,0-0.5-0.1-0.8-0.1
			c-0.4,0.1-1.1,0-1.6,0c-0.2,0-0.3,0-0.5,0.1c-0.7-0.1-1.5-0.1-2.4-0.1c-0.2,0-0.5-0.1-0.6-0.1c-0.2,0-0.7-0.1-1-0.1
			c-0.4,0.1-0.7,0-1,0c-0.4,0.1-0.6,0.1-1.1,0.1c-0.1,0-0.6-0.1-0.8-0.1c-0.7,0.1-1.3,0.1-2.3,0.1c-0.2,0-0.7-0.1-0.8-0.1
			c-0.6,0.1-0.8-0.1-1.6-0.1c-1,0.1-2,0-3.2,0c-0.2,0-0.3,0.1-0.4,0.1c-1.7,0-3.4-0.3-4.9-0.1c-0.7,0.1-1.6-0.1-2.2-0.1
			c-0.8,0.1-1.3,0.1-1.9,0.1h-1.1c-0.1,0-0.6-0.1-0.8-0.1c-1.2,0.2-3-0.1-4.7,0c-0.5,0-1.5,0-1.8,0c-0.2,0-0.7,0.2-0.9,0.1
			c-0.5-0.1-1.1-0.2-1.7-0.1c-1.1,0.1-1.8,0.1-2.9,0.1c-0.5,0-0.8,0.1-1.2,0c-0.5,0-1.1,0-1.6,0.1c-0.6-0.1-1.3-0.1-1.7-0.1
			c-1.3,0.1-2.8,0.2-3.6,0.1c-0.9-0.1-1.7,0.3-2.3-0.1c-0.2,0.1-1,0.1-1.3,0.1c-2.2-0.2-4.2,0.2-5.7,0.1c-1.3,0-3-0.2-4.3-0.1H24
			c-0.2,0-0.6,0.1-0.7,0.1c-0.2,0-0.8-0.1-1-0.1c-1,0.1-1.8,0-2.8,0c-0.3,0-1.5,0.1-1.9,0.1c-1-0.1-1.7,0.1-2.4,0
			c-0.1,0-0.2,0-0.4,0.1c-0.3-0.1-1-0.1-1.3-0.1c-1.7,0.1-3.6,0-4.6,0.1c-0.7,0-1,0.2-1.7,0c-0.5,0-0.9,0-1.4-0.1
			c-0.4-0.1-1.2-0.4-1.4-0.5c-0.2-0.1-0.3-0.5-0.4-0.7c0,0-0.2-0.1-0.2-0.1c-0.4-0.5-0.2-1.3-0.2-1.8c-0.2-1.1,0.2-2.7-0.1-4.1
			c0-0.9,0-1.9,0.1-2.8c-0.2-0.9-0.1-2.4-0.1-3.6c0-0.3,0.1-0.8,0.1-1c-0.2-1,0-2.1,0-2.9c-0.2-3.2,0.1-6.5-0.1-8.1
			c-0.1-1,0.1-1.5,0-2.2c-0.1-0.5,0.1-0.8,0.1-1.3c-0.1-0.8-0.1-2.3-0.1-3.4c0-0.6,0.1-1.6,0-1.8v-0.1c18.8-1.7,37.7-3.4,56.5-5.1
			v0.1c-1,0.3-2,0.9-2.8,1.4c-0.4,0.2-0.7,0.3-1.1,0.5c-2,1.2-3.7,2.9-5,4.8c-0.5,0.8-0.9,1.6-1.3,2.5c-0.2,0.4-0.2,1-0.5,1.3v0.2
			c0.5-0.1,1.1-0.1,1.7,0.1c0.5,0.1,0.8-0.3,1.4-0.1c0.8,0.2,2.1,0.1,2.5,0.2c0.3,0,0.6,0,1,0.1v0.1c0.1,0,0.2,0,0.3,0.1
			c0.1,0,0.1,0.3,0.2,0.3c0.6,0.1,1.2,0.2,1.8,0.2c-0.6,0.3-1.4-0.3-2-0.1c0,0,0,0.1-0.1,0.1h-0.4c0,0.1-0.1,0.1-0.1,0.2
			c-0.4,0.1-1.1-0.1-1.4-0.2c-0.6-0.1-1.1-0.1-1.7-0.2c-0.3-0.1-0.6,0.1-0.8-0.1c0-0.1,0-0.1-0.1-0.2h-0.4c-0.6-0.2-1.4-0.2-1.9-0.4
			c-0.5,1.3-0.5,2.8-0.8,4.4c-0.1,0.6,0,1.2-0.1,1.7c0,0.9,0,1.8-0.1,2.6c-0.1,1.7-0.2,3.4-0.3,5.1c-0.1,1-0.3,2.1-0.4,3.1
			c-0.7,2.6-1.3,5.1-2.9,6.7v0.1c0.5-0.1,1.1-0.1,1.6-0.2c1.7-0.5,3.2-1.3,4.1-2.5c0.4-0.5,0.6-1.1,1-1.6v-0.1
			c0.3,0.2,0.3,0.9,0.4,1.3c0.3,1,0.5,2.2,0.6,3.3c0,0.4,0.1,1.2,0,1.4v0.7c2.2-1.1,3.5-4.3,4.3-6.9c0.2-1,0.3-2.1,0.5-3.1
			c0.1-1.5,0.2-3.1,0.2-4.6v-2.6c0.1-0.5-0.1-1.2,0.1-1.8c0.3-1.5,0.1-3,0.5-4.4c0.9-3.4,2.3-6.1,4.1-8.6c0.5-0.7,1.2-1.3,1.7-2
			c0.3-0.4,0.8-0.7,1.1-1c0.7-0.5,1.2-1.2,1.9-1.7c0.3-0.2,0.8-0.4,1-0.7c0.5,0.2,0.4,1,1.1,1.3c1.7,0.6,4.7,0.8,6.6,0.3
			c0.9-0.2,1.7-0.3,1.8-1.2c1.1,0.6,2.9,2.3,3.7,3.2c0.5,0.6,1.2,1.2,1.7,1.9c1.8,2.5,3.2,5.2,4.1,8.6c0.3,1.1,0.2,2.3,0.4,3.4v1.1
			c0.2,0.9,0.1,2.3,0.1,3.3v1.1c0.1,0.5-0.1,1.3,0.1,1.9c0.1,0.6,0,1.3,0.1,2c0.3,1.3,0.2,2.6,0.5,3.8c0.6,2.1,1.3,3.9,2.5,5.4
			c0.5,0.6,1.2,1,1.7,1.6h0.1c0-1.4,0-2.9,0.3-4.3c0.2-0.8,0.4-1.6,0.6-2.3h0.1c0.4,1.7,2.8,3.4,4.5,4c0.4,0.1,0.9,0.2,1.3,0.3
			c0.3,0.1,0.6-0.1,0.8,0.1h0.1c-0.2-0.3-0.5-0.6-0.7-0.8c-0.5-0.7-0.9-1.5-1.2-2.3c-0.7-1.5-0.8-3.3-1.3-5.1
			c-0.1-0.8-0.1-1.6-0.2-2.3c-0.1-0.5-0.1-1.3-0.2-1.9v-1.1c-0.2-0.9,0.1-1.9-0.1-2.8c-0.1-0.7,0-1.4-0.1-2.2
			c-0.3-1.2-0.2-2.6-0.5-3.7c-1.2-4.3-3.1-7.5-6.3-9.8c-0.6-0.4-1.3-0.7-2-1.1c-0.7-0.5-2.5-1.5-3.4-1.6c0.2-0.1,0.8,0,1.1,0.1
			c1,0.1,2,0.2,2.9,0.2c3.7,0.4,7.4,0.7,11.1,1.1c6.2,0.6,12.5,1.1,18.7,1.7c2.2,0.5,4.8,0.2,7.1,0.7c0.7,0.1,1.3,0.1,1.9,0.2
			c0.7,0,1.3,0.1,2,0.1c1.4,0.3,3.1,0.2,4.5,0.5c0.4,0,0.9,0,1.3,0.1c1,0.2,2.2,0.1,3.2,0.3c0.6,0.1,1.3,0,1.9,0.2
			c0.7,0.2,1.6,0.2,2.3,0.2c0,0.4,0.2,0.9,0.1,1.2c0,0.2-0.1,0.6-0.1,0.7c0,0.1,0.1,0.2,0.1,0.4c0,0.2-0.1,0.8-0.1,1.1
			C142.6,81.2,142.8,82.2,142.7,82.6z M56.7,81.2c0,0.2,0,0.2-0.1,0.3c-0.3,0.1-0.7-0.1-1-0.1c0,0,0,0.1-0.1,0.1
			c-0.2,0-0.1-0.1-0.2-0.2c-0.1,0-1.1,0-1.4-0.1c-0.4-0.1-0.9,0.1-1.2-0.1c-0.4,0-0.6,0-0.8-0.2c-0.1,0-0.1,0-0.1-0.1
			c0.2-0.1,0.2,0,0.2-0.2c1,0.2,2.1,0.2,3.1,0.4c0.2,0.1,0.4-0.1,0.5-0.1C55.9,81.1,56.2,81.2,56.7,81.2z M55.2,86.8
			c0,0.1,0,0.1-0.1,0.2c-0.3,0.2-0.9-0.2-1.1-0.1c-0.9,0.1-2.2-0.3-3.1-0.5c-0.6-0.2-1.3,0-1.8-0.3H49V86c0.5,0,1.2-0.1,1.5-0.1
			c0.1,0,0.7,0.2,0.8,0.1c0.2-0.1,0.8-0.2,1.1-0.1c0.6,0.1,1.6,0.4,2.7,0.4v0.2c0.4,0.2,1,0.3,1.5,0.3C56.4,87,55.4,86.8,55.2,86.8z
			 M55.3,88.8c0,0.1,0,0.2-0.1,0.2c-0.2,0.1-0.8-0.1-1.2-0.1c-0.6,0.1-3,0-3.6-0.4h-0.1c0-0.2,0.1-0.2,0.1-0.3
			c1.1,0,2.3-0.1,3.1,0.2C54.1,88.6,54.6,88.8,55.3,88.8C55.3,88.8,55.3,88.8,55.3,88.8z M69.8,68.2c0,0.1-0.2,0.3-0.2,0.4
			c0,0.2,0.1,1,0.2,1.1c-0.1,0-0.1,0-0.2,0.1c0,0.2,0.1,0.7-0.1,0.9v0.1c-0.4-0.2-0.2-0.7-0.5-0.8c0-0.6,0-1.2,0.3-1.6
			c0.1-0.2,0.1-0.2,0.2-0.3h0.1L69.8,68.2C69.7,68.2,69.8,68.2,69.8,68.2z M73.2,70.6c0,0.2,0,0.2-0.1,0.3c-0.1,0.1-0.1,0-0.2,0
			c0,0,0,0,0.1-0.1c0,0,0-0.2-0.1-0.1c0,0,0,0-0.1,0.1c0.1-0.4,0-0.3,0-0.8c-0.1,0.1-0.1,0.1-0.2,0.1c-0.2-0.7-0.3-1-0.5-1.6
			c-0.1-0.1-0.3-0.2-0.3-0.4c0-0.1,0.1-0.1,0.1-0.2c0-0.1-0.2-0.3-0.3-0.4c0-0.1,0-0.1,0.1-0.2c-0.1-0.2-0.2-0.7-0.4-1
			c-0.1,0-0.2-0.1-0.2-0.1c-0.2-0.2-0.3-0.6-0.4-0.9c0.1-0.1,0.1-0.1,0.1-0.2c0.1,0,0.1,0,0.2,0.1c0.1,0.3,0.6,1.6,0.8,1.7h0.2
			l0.6,0.9c0.2,0.4,0.1,1.2,0.3,1.5c0.1,0,0.2,0,0.2,0.1C73.2,69.8,72.9,70.2,73.2,70.6z M93.5,82.8c-0.3,0.1-0.7,0.3-1,0.4
			c-0.4,0-0.9,0-1.3,0.1c-0.2,0.1-1.8,0.5-2.1,0.4c0-0.1-0.1-0.1-0.1-0.2c-0.2-0.1-0.7-0.1-1-0.1c0.7-0.5,1.3-0.5,2.3-0.7
			c0.6-0.1,1.5,0.2,2-0.1c0.4,0,0.6,0.1,0.8,0.1c0.7,0.2,1.5-0.3,2-0.1c0.1,0,0.1,0,0.1,0.1C94.7,82.8,94.2,82.7,93.5,82.8z
			 M95.3,85.5c-0.4,0.3-0.9,0.1-1.5,0.2c-0.2,0-0.3,0.2-0.5,0.2c-1,0.3-2.2,0.2-3.2,0.4c-0.3,0.1-0.3-0.1-0.4-0.2
			c-0.1-0.1-0.7,0-1,0c0.2-0.2,0.7-0.1,0.9-0.2c0-0.1,0-0.1,0.1-0.2c0.9,0,1.9-0.3,2.7-0.4c0.3,0,0.8,0,1,0.1
			C93.5,85.6,95,85.4,95.3,85.5z M142.8,39.7c0,0.2-0.1,0.8-0.1,1c0.1,0.9,0.1,2.3-0.1,3.2c-0.1,0.4,0.2,1,0.1,1.6
			c-0.1,0.7-0.1,1.5-0.1,2.2c0.1,0.7-0.1,1.2-0.1,1.6c0,0.2,0.1,0.5,0.1,0.9c0,0.1-0.1,0.3-0.1,0.5c0,0.3,0.1,1.6,0.1,2
			c0,0.2-0.1,0.5-0.1,0.7c0.2,1.4,0.1,2.9,0,4.8c0,0.2,0.1,0.1,0.1,0.2c-0.1,0.7,0,1.2-0.1,1.7c-0.1,0.5,0.1,1.3,0,1.7
			c0,0.2-0.1,0.4-0.1,0.7c-19.8,1.8-39.6,3.5-59.3,5.3c0.5-0.4,2-0.7,2.7-1c1.8-0.7,3.6-1.3,5.4-2.1c3.1-1.3,6.3-2.6,9-4.3
			c1.3-0.8,2.4-1.8,3.5-2.6c1.5-1.1,2.6-2.5,3.6-4.1c0.2-0.4,0.8-1.2,0.5-1.9c-0.1-0.2-0.3-0.4-0.4-0.5c-0.4-0.6-0.9-1.2-1.3-1.9
			c-1-1.6-2-3.1-3.1-4.6c-0.4-0.6-1-1.1-1.4-1.7c-0.7-1-1.3-1.8-2-2.8c-0.3-0.4-0.7-0.7-1-1.1C98,38,97.1,37,96.2,36.4
			c-0.9-0.6-1.7,0-2.5,0.5c-1.2,0.7-2.3,1.4-3.4,2.2c-0.5,0.3-0.9,0.8-1.3,1.1c-3.1,2.3-5.9,5.1-8.2,8.2c-1.3,1.8-2.8,3.5-3.8,5.6
			c-0.6,1.4-1.1,2.8-1.5,4.4c-0.1,0.9-0.2,1.8-0.4,2.8v2.1c-0.1,0.2-0.7,0.2-0.9,0.2c-0.9,0.3-3,0.4-3.7-0.2h-0.1
			c0-6.9-2.2-10.5-5.1-14.4c-0.4-0.5-0.9-1-1.3-1.5c-1.8-2.3-4.4-4.9-6.7-6.6c-0.3-0.2-0.6-0.6-0.9-0.8c-1.4-1-2.7-2.1-4.3-2.9
			c-0.8-0.4-1.6-1.1-2.6-0.5c-1.2,0.7-2.4,2.2-3.2,3.4c-0.6,0.8-1.3,1.5-1.9,2.2c-1.4,1.9-2.7,3.9-4.1,5.8c-0.7,1-1.4,2-2,3
			c-0.2,0.3-0.7,0.6-0.5,1.4c0.5,2,2.2,3.9,3.7,5c0.5,0.3,0.8,0.9,1.3,1.2c1.1,0.8,2.2,1.5,3.3,2.2c2.9,1.8,6.2,2.9,9.5,4.3
			c1.3,0.6,2.8,1,4.2,1.6c0.7,0.3,1.6,0.8,2.5,0.9c-0.2,0.1-0.8,0.1-1.1,0c-0.9-0.1-1.8,0-2.8-0.2c-2.2-0.5-4.6-0.2-6.8-0.7
			c-0.7-0.2-1.4,0-2-0.2c-0.9-0.2-1.9-0.1-2.7-0.2c-1.1-0.1-2.3-0.2-3.4-0.2c-2.1-0.5-4.6-0.2-6.8-0.7c-0.7-0.2-1.4,0-2-0.2
			c-0.9-0.2-1.9-0.1-2.7-0.2c-1.1-0.1-2.3-0.2-3.4-0.2C26,64,23,64.3,20.4,63.7c-0.9-0.1-1.8-0.1-2.8-0.2C16,63.2,14,63.4,12.3,63
			c-0.5,0-0.9,0-1.4-0.1c-1-0.2-2.2-0.1-3.4-0.3c-1.1-0.2-2.8-0.4-4-0.4c-0.1-1.8-0.1-3.9,0-5.8c0.1-1.3-0.1-2.1,0-3.2
			c0-0.3-0.1-0.8-0.1-1c0-0.5,0.1-1.1,0.1-1.6c0-0.3-0.1-0.8,0-1.1c0-1.1,0-2.2-0.1-3.4c0-1.2,0-2.9,0-4.6v-2.1
			c0.1-0.8-0.1-1.7-0.1-2.4c0-0.2,0.1-0.4,0.1-0.7c0.1-0.5-0.2-1.7-0.1-2.3c0.1-0.3,0.2-0.5,0.2-0.8c0.2-0.7,0.1-1.3,0.2-1.8
			c0.1-0.2,0.3-0.5,0.4-0.7c0.1-0.2,0.1-0.3,0.2-0.5c2.1-1.9,5.8-1.4,8.7-1.5c0.7,0,1.3,0.3,2,0.2c0.5-0.1,1.1,0.1,1.7,0
			c0.2,0,0.3-0.1,0.6-0.1c0,0,0.4,0.1,0.4,0.1c0.4,0,1.1-0.1,1.5-0.1c0,0,0.1,0.1,0.1,0.1c3.1,0,5.4,0,8.1,0c0.1,0,0.4,0.1,0.5,0.1
			c1,0,2-0.1,2.9-0.1c0.2,0,0.8,0.1,1.1,0.1c0.6-0.1,1.3,0.1,2.2-0.1c0.1,0,0.4,0.1,0.5,0.1c0.9-0.1,2.8-0.1,3.8,0
			c1,0.1,2.7-0.1,3.4,0.1c0.4-0.1,2.8-0.1,3.1,0c1.4-0.4,4,0.2,5.6-0.1c0.5-0.1,1.3,0.1,2,0.1c0.1,0,0.2-0.1,0.2-0.1l0.3,0.1
			c0.4,0,0.8-0.2,1.2-0.1c0.3,0,1,0.2,1.3,0.1c0.9-0.1,2,0,2.8,0c0.3,0,0.8,0,1,0c0.1,0,0-0.1,0.2-0.1v0.1c0.4,0.1,0.9-0.2,1.3-0.1
			c1.2,0.2,3.1,0,4.4,0.1c0.9,0.1,1.6,0,2.1-0.1c0.3-0.1,1,0.1,1.3,0.1c0.2,0,0.6,0,0.7,0.1c0.4,0,1,0,1.3-0.1
			c0.5,0.1,2.7,0.1,3.1,0.1c0.7,0,1.7-0.2,2.2-0.1c0,0,0.4,0.1,0.4,0.1c0.2,0,1.2-0.2,1.2-0.2c0,0,0.1,0.2,0.1,0.2
			c0.8-0.2,1.7,0,2.6-0.1c0.1,0,0.2,0.1,0.4,0.1c0,0,0-0.1,0.1-0.1c0.3,0,0.6,0.1,0.8,0.1c0.4-0.1,1.1-0.2,1.5-0.1
			c0.1,0,0.6,0.1,0.7,0.1c0.8,0,1.9-0.1,2.6-0.1c0.6,0,1.4,0.2,1.8,0.1c0.9-0.1,2,0,3.4,0c1.2,0,2.4-0.1,3.4,0c0.7,0.1,1.6-0.2,2,0
			c0.1-0.1,0.3-0.1,0.5-0.1c0.3,0.1,1.7-0.1,2.3,0.1c0.6-0.1,1.6,0,2.2-0.1c0.4,0,0.9-0.1,1.4,0c0.3,0.1,0.6-0.1,0.9-0.1
			c0.3,0,0.8,0,1.1,0c0,0-0.1,0.2,0.1,0.1c0.4-0.2,1.1,0.1,1.9,0c0.3-0.1,1.9-0.1,2.2,0c0.1-0.1,1.4-0.1,1.4-0.1l0.2,0.1
			c0.4,0,1-0.1,1.4-0.1c0.5,0.1,0.8-0.1,1.1-0.1c0.2,0,0.4,0.2,0.7,0.1c0.2,0,0.6-0.2,0.8-0.1c0.5,0.1,0.8,0.2,1.2,0.1
			c0.1,0,0.2-0.1,0.4-0.1l0.2,0.1c0.1,0,1-0.2,1-0.2c1.2,0.3,3.4,0.1,4.5,0.1c0.1,0,0.1-0.1,0.2-0.1c0.3,0,0.7,0,1,0.1
			c0.1,0,0.5-0.1,0.7-0.1c0.2,0,0.8,0.1,1.1,0.1c0.1,0,0.5-0.1,0.6-0.1c0.1,0,0.2,0.1,0.4,0.1c0.2,0,0.5-0.3,0.8-0.2
			c0.2,0.1,1,0.2,1.3,0.1c0.1,0,0.1-0.1,0.2-0.1v0.1c0.2-0.1,0.5,0,0.6,0c0.1,0,0.3-0.2,0.5-0.1c0.9,0.2,2.4,0.1,3.4,0.1
			c0.9,0,1.8-0.2,2.6,0.1c0.1,0,0.6-0.1,0.6-0.1c0,0.1,0.1,0.1,0.1,0.2c0,0,0.7,0,0.7,0c0,0,0-0.1,0.1-0.1c0.1,0,0.3,0.1,0.4,0.1
			c0.5,0,0.8,0,1.4,0.1c1,0.3,1.7,0,2.2,0.5c0.3,0,0.2,0,0.2,0.3h0.2c0.2,0.2,0.6,0.5,0.8,0.8c0.5,0.9,0.2,1.8,0.3,2.6
			c0,0.3,0.1,0.4,0.2,0.7c-0.1,0.4-0.1,0.9,0.1,1.4c0,0.1-0.2,0.3-0.1,0.5c0,0.2,0.2,0.3,0.2,0.5c0.1,0.4-0.1,1.1-0.1,1.4
			C142.7,38.3,142.9,39.2,142.8,39.7z M89.5,60c0.3-0.1,0.6,0,0.8-0.2c0.2-0.2,0.4-0.4,0.5-0.5c0.1-0.1,0.3,0,0.4-0.1V59
			c0.2-0.1,0.5-0.2,0.7-0.2c0.4-0.3,0.9-0.8,1.3-1c0.3-0.2,0.5-0.2,0.7-0.4c0.1-0.2,0.3-0.4,0.4-0.5c0.3-0.2,0.5-0.1,0.7-0.2
			c0.4-0.2,0.7-0.7,1.1-0.9c0.4-0.3,0.9-0.3,1.4-0.5c0.2-0.1,0.4-0.4,0.5-0.5c0.3-0.2,0.6-0.1,1-0.3c0,0,0.1-0.2,0.1-0.2
			c0.3-0.2,0.5-0.1,0.8-0.2c0.9-0.3,2.1-0.6,3-0.9c0.4-0.2,0.8-0.1,1.2-0.4h0.1v0.1c-0.2,0.1-0.2,0.2-0.4,0.2
			c-0.4,0.2-0.8,0.1-1.3,0.3c-0.3,0.1-0.8,0.3-1.1,0.4c-0.6,0.2-1.8,0.2-2.2,0.5c-0.1,0.1-0.1,0.2-0.2,0.3c-0.1,0.1-0.1-0.1-0.2,0.1
			h-0.1c-0.1,0.1,0,0.2-0.1,0.3c-0.1,0.1-0.3,0.1-0.4,0.2c-0.1,0.2-0.2,0.4-0.4,0.5c-0.2,0.2-0.5,0.1-0.8,0.2
			c-0.5,0.2-1.4,0.8-1.9,1.1c-0.1,0.1-0.2,0.2-0.2,0.3c-0.2,0.2-0.5,0.2-0.7,0.4c-0.1,0.1,0,0.2-0.1,0.2c-0.2,0.2-0.6,0.2-0.8,0.4
			c-0.2,0.1-0.4,0.4-0.6,0.5c-1.6,0.7-4,1.5-5.2,2.8h-0.1C88.1,61,88.9,60.4,89.5,60z M85.9,53.1c-0.2-0.4-0.6-0.7-0.8-1.1
			c-0.1-0.1,0-0.1,0.1-0.2c0.4,0.2,0.5,0.7,0.8,1c0,0,0.3,0.1,0.4,0.2c0.1,0.1,0.1,0.3,0.2,0.5c0.2,0.2,0.5,0.5,0.7,0.7
			c0.4,0.5,0.6,1.1,1.1,1.5c0,0.3-0.1,0.3-0.2,0.4C87.3,55.4,86.6,54.2,85.9,53.1z M94.1,51.2c-0.7-0.5-1.1-1.3-1.6-2
			c-0.1-0.2-0.4-0.4-0.5-0.6c-0.1-0.2-0.1-0.4-0.2-0.6c-0.2-0.3-0.6-0.7-0.8-1.1c-0.1-0.1,0-0.1,0.1-0.2c0.3,0.2,0.4,0.5,0.6,0.8
			c0.2,0.2,0.5,0.4,0.7,0.7c0.2,0.2,0.2,0.4,0.4,0.6c0.4,0.6,1,1.2,1.4,1.8c0.1,0.1,0.1,0.3,0.2,0.4C94.3,51.1,94.2,51.1,94.1,51.2z
			 M92.3,51.8c0.3,0.4,0.5,0.8,0.8,1.2c0.1,0.2,0.5,0.4,0.5,0.6c0,0.1,0,0.2-0.1,0.3c0,0,0.4,0.3,0.5,0.4c0,0.3,0,0.4-0.2,0.5
			c-0.1,0.1-0.1,0-0.2,0.1c-0.1-0.2-0.3-0.3-0.3-0.6c-0.2,0-0.2,0.1-0.3,0c-0.4-0.1-1.4-1.9-1.7-2.3c-0.8-1.1-1.6-2.1-2.4-3.2
			c-0.3-0.4-0.7-0.7-0.9-1.1c0-0.1,0-0.2-0.1-0.3c-0.3-0.5-0.9-1-1.2-1.5c-0.2-0.4-0.2-0.9-0.5-1.1c0-0.1,0.1-0.1,0.1-0.2
			c0.7,0.3,1.2,1.2,1.6,1.7c0.2,0.2,1,1.2,1.1,1.2c0.2,0.3,0.4,0.7,0.6,1C90.5,49.5,91.4,50.7,92.3,51.8z M86.2,49.1
			c0.1,0.2,0.4,0.3,0.6,0.5c0,0.1,0,0.2,0.1,0.2c0.4,0.5,0.7,0.9,1.1,1.4c0.6,0.8,1.3,1.5,1.9,2.3c0.2,0.3,1.3,2,1.5,2.1
			c0,0.3-0.1,0.4-0.2,0.5c-0.7-0.1-1.2-1.3-1.8-2c-0.9-1.3-2-2.5-2.9-3.8c-0.3-0.4-0.5-1.1-0.7-1.4c-0.3-0.5-0.9-1-1.1-1.6
			c0-0.1,0-0.1-0.1-0.2c0.4,0.1,1,1.2,1.3,1.5c0.1,0.1,0.2,0.1,0.2,0.1C86.1,48.8,86.2,49,86.2,49.1z M104.5,52.8L104.5,52.8
			c0.1-0.1,0.1-0.1,0.1-0.1h0.2c0,0-0.1,0.1-0.2,0.1H104.5z M104.9,52.7L104.9,52.7c0.2-0.1,0.6-0.3,0.8-0.4h0.2v0.1
			c-0.3,0.1-0.6,0.2-0.8,0.4H104.9z M52.7,44.1c0.1,0.2-0.9,1.5-1.1,1.7c-1.3,1.8-2.9,4.3-4.2,5.5c-0.2,0-0.2-0.1-0.4-0.2
			c0.1-0.9,1.2-1.9,1.7-2.6c0.7-0.9,1.4-1.7,2-2.6c0.3-0.4,0.5-0.9,0.8-1.2c0.8-0.8,1.6-1.5,2.2-2.5h0.1
			C53.8,42.7,52.9,43.7,52.7,44.1z M53.3,47c-0.1,0.4-0.4,0.6-0.6,0.8c-0.2,0.3-0.2,0.6-0.4,1c-0.2,0.4-0.6,0.7-0.8,1
			c-0.2,0.2-0.2,0.5-0.4,0.7c-0.2,0.2-0.6,0.5-0.7,0.7c-0.1-0.1-0.2-0.1-0.3-0.2c0.1-0.6,0.6-0.9,0.8-1.3c0.4-0.5,0.7-1.2,1.1-1.7
			c0.1-0.1,0.3-0.2,0.4-0.2c0.3-0.3,0.5-0.7,0.7-1C53.1,46.9,53.2,46.9,53.3,47z M50.9,42.1c-0.1,0.1-0.2,0.2-0.4,0.4
			c-1,1.8-2.3,3.3-3.5,5c-0.5,0.6-1.1,1.2-1.4,1.9c-0.2,0-0.2,0.1-0.3,0c-0.2,0.1-0.2,0.4-0.4,0.5c-0.1,0.1-0.1,0-0.2,0.1
			c-0.1-0.1-0.1-0.1-0.2-0.2c0-0.6,0.3-0.4,0.5-0.7c0-0.1,0-0.2-0.1-0.3c0.1-0.1,0.2-0.2,0.4-0.4c0.4-0.5,0.7-1,1.1-1.4
			c0.3-0.4,0.5-0.8,0.8-1.2c0.3-0.5,0.8-0.9,1.1-1.3c0.8-1.1,1.4-1.9,2.2-2.9c0.1-0.1,0.2-0.1,0.3-0.2c0.4-0.5,0.7-0.9,1.1-1.4
			c0.1-0.2,0.3-0.1,0.4-0.4c0.1,0,0.1,0.1,0.2,0.1C51.9,40.7,51.4,41.4,50.9,42.1z M46.6,43.1c-0.1,0.2-0.1,0.4-0.2,0.6
			c-0.2,0.4-0.6,0.8-0.8,1.1c-0.3,0.5-0.9,1-1.2,1.5c0,0,0,0-0.1-0.1c-0.1,0-0.1-0.1-0.2-0.1c0.2-0.6,0.6-0.9,0.9-1.4
			c0.4-0.5,0.7-1.1,1.1-1.6c0.4-0.5,0.9-0.9,1.3-1.4c0.1,0,0.1,0.1,0.2,0.1C47.3,42.4,46.9,42.8,46.6,43.1z M44.5,53.6
			c0.3,0,0.6,0.1,0.9,0.1c0.9,0.3,1.8,0.5,2.6,0.8c0.4,0.1,0.7,0.6,1,0.7c0.5,0.2,1,0.2,1.4,0.5c0.4,0.2,0.7,0.7,1.1,0.9
			c0.2,0.1,0.4,0.1,0.7,0.2c0.1,0.2,0.3,0.4,0.4,0.5c0.2,0.2,0.5,0.2,0.7,0.4c0.4,0.3,0.8,0.7,1.3,1c0.2,0.1,0.5,0.2,0.7,0.2v0.2
			c0.1,0.1,0.3,0,0.4,0.1c0.2,0.2,0.4,0.4,0.5,0.5c0.2,0.1,0.6,0,0.8,0.2c0.6,0.3,1.4,1,1.8,1.6c-0.5-0.3-0.9-0.7-1.3-1
			c-0.2-0.2-0.5-0.1-0.8-0.2c-0.3-0.1-1-0.7-1.3-0.8h-0.4c-0.2-0.1-0.5-0.2-0.8-0.4c-0.2-0.1-0.4-0.3-0.6-0.4c-0.1,0-0.1,0-0.2,0.1
			c-0.2-0.1-0.4-0.4-0.6-0.5c-0.2-0.2-0.6-0.2-0.8-0.4c-0.1-0.1,0-0.2-0.1-0.2c-0.2-0.2-0.5-0.2-0.7-0.4c0,0-0.1-0.2-0.2-0.3
			c-0.3-0.2-0.6-0.2-0.8-0.4c-0.3-0.2-0.7-0.6-1.1-0.7c-0.3-0.1-0.5-0.1-0.8-0.2c-0.2-0.1-0.3-0.4-0.5-0.6c-0.1,0-0.2-0.1-0.4-0.1
			c-0.1-0.1,0-0.2-0.1-0.3h-0.1c-0.1-0.1-0.1-0.1-0.2-0.1c-0.1-0.1-0.1-0.2-0.2-0.3c-0.2-0.2-0.7-0.1-1-0.2
			c-1.1-0.4-3.2-0.6-3.9-1.3C43,53,43.7,53.3,44.5,53.6z M42.2,52.8c-0.1,0-0.2-0.1-0.3-0.1C42.1,52.7,42.1,52.7,42.2,52.8z
			 M41.8,52.7c-0.2,0.1-0.8-0.2-1-0.4C41.3,52.4,41.5,52.6,41.8,52.7z"/>
	</g>
</g>
</svg>
