<?xml version="1.0" encoding="utf-8"?>
<!-- Generator: Adobe Illustrator 19.0.0, SVG Export Plug-In . SVG Version: 6.00 Build 0)  -->
<svg version="1.1" id="Shape_1_1_" xmlns="http://www.w3.org/2000/svg" xmlns:xlink="http://www.w3.org/1999/xlink" x="0px" y="0px"
	 viewBox="0 0 144 144" enable-background="new 0 0 144 144" xml:space="preserve">
<g id="Shape_1">
	<g>
		<path fill-rule="evenodd" clip-rule="evenodd" d="M132.3,51.6c-0.1-0.5-1.2-1.2-1.6-1.5c-0.2-0.1-0.3-0.4-0.5-0.5
			c-1.2-1-2.3-2-3.5-3c-0.2-0.1-0.3-0.4-0.5-0.5c-1-0.8-1.9-1.6-2.8-2.5c-0.2-0.2-0.4-0.3-0.6-0.5c-0.3-0.2-0.6-0.6-0.9-0.9
			c-0.9-0.7-1.7-1.4-2.5-2.2c-0.4-0.4-0.9-0.8-1.4-1.1c-0.1,0,0-0.1-0.1-0.2c-0.3-0.3-0.7-0.5-1.1-0.8c0-0.1-0.1-0.1-0.1-0.2
			c-0.2-0.2-0.4-0.3-0.6-0.5c0-0.1-0.1-0.1-0.1-0.2c-0.2-0.2-0.5-0.3-0.6-0.5c-0.7-0.7-1.3-1.3-2.1-1.9c-0.3-0.2-0.6-0.6-0.9-0.9
			c-0.3-0.3-0.7-0.5-1-0.8c-0.6-0.6-1.4-1.5-2.2-1.9c0.1-0.3,0.8-0.4,1.1-0.6c1.1-0.5,2.3-1,3.3-1.6c2.4-1.5,5.5-3.2,7.2-5.4
			c0.7-1,1.6-1.7,1.9-3.2c0.1-0.4-0.3-0.7-0.4-0.9c-0.4-0.6-0.8-1.2-1.2-1.9c-0.7-1.1-1.3-2.2-2-3.2c-0.9-1.4-1.8-2.7-2.7-4
			c-1.3-1.9-2.6-3.7-3.9-5.6c-0.6-0.8-1.3-1.4-1.9-2.1c-0.7-0.9-2-2.3-3.2-2.6c-0.6-0.2-1.8,0.5-2.2,0.7c-2.2,0.9-4,2.1-5.9,3.2
			c-1.6,1-3.1,2-4.7,3.1C93.3,8,92.1,9,90.8,10c-1,0.7-1.8,1.7-2.8,2.5L87.4,13c-0.5,0.4-0.9,0.9-1.3,1.3c-0.5,0.5-0.9,0.9-1.3,1.4
			c-0.6,0.8-1.4,1.4-2,2.2c-1.1,1.4-2.1,2.8-3,4.4H64.6c-0.2-0.1-0.3-0.5-0.4-0.7c-0.3-0.5-0.6-1-0.9-1.5c-0.7-1.1-1.6-2.1-2.4-3.1
			c-0.4-0.5-0.9-0.9-1.3-1.4c-0.4-0.4-0.9-0.8-1.3-1.3c-0.8-0.8-1.6-1.7-2.5-2.4c-0.2-0.2-0.5-0.5-0.7-0.7C54,10.4,53,9.5,51.9,8.6
			c-2.3-1.7-4.6-3.3-7.1-4.9c-1.8-1.1-3.5-2.1-5.6-3C38.8,0.5,37.6-0.1,37,0c-1.5,0.4-3.3,2.5-4.1,3.7c-0.3,0.4-0.7,0.7-1,1.1
			c-0.8,1.1-1.7,2.2-2.5,3.4c-1.6,2.3-3.1,4.8-4.7,7.2c-0.8,1.2-1.6,2.5-2.4,3.8c-0.3,0.4-0.8,0.8-0.6,1.6c0.3,1.2,1.2,2,1.8,2.8
			c0.6,0.8,1.3,1.4,2.1,2c0.5,0.4,0.9,0.8,1.4,1.2c1.3,0.9,2.7,1.7,4.2,2.5c0.8,0.4,1.6,0.9,2.5,1.3c0.3,0.1,0.6,0.4,1,0.5
			c-0.1,0.3-1.5,1.4-1.9,1.7c-0.2,0.1-0.3,0.4-0.5,0.5c-0.4,0.4-0.9,0.7-1.4,1.1c-0.2,0.2-0.3,0.4-0.5,0.6c-0.5,0.4-1,0.9-1.5,1.3
			c-0.1,0.1-0.2,0.1-0.3,0.1c-2.3,2.2-4.7,4.3-7.2,6.3c-0.2,0.2-0.3,0.4-0.5,0.6c-1.5,1.2-2.8,2.6-4.3,3.8c-1.1,0.9-2.1,1.8-3.1,2.7
			c-0.2,0.1-0.3,0.4-0.5,0.5c-0.4,0.4-1.2,0.8-1.5,1.3c-0.2,0.3-0.1,0.9-0.1,1.3v16.1h5.5V144h109.8V68.7h5.5V52.9
			C132.4,52.5,132.5,51.8,132.3,51.6z M78.6,25.1c-0.4,0.9-0.5,1.8-0.8,2.8c-0.1,0.3-0.2,0.7-0.2,1.1h0c-0.3-1.3-0.7-2.6-1-3.9H78.6
			z M69.7,33.6c0.5,0.1,0.2,0.4,0.4,0.7c0.3,0.5,0.7,0.9,0.8,1.5c0.2,0,0.2,0.1,0.4,0.1c0.1,0.5,0.5,0.7,0.6,1v0.4
			c0.2,0.4,0.3,1,0.4,1.4c0.1,0,0.2,0,0.3,0v1.1c0.2,0.4,0.3,0.4,0,0.9c-0.2,0-0.2-0.1-0.3-0.1c-0.1-0.1-0.1-0.3,0-0.5V40
			c-0.1,0-0.1,0.1-0.2,0.1c0-0.1-0.1-0.1,0-0.1v-0.5c-0.1,0.1-0.1,0-0.1,0.1h-0.1c0-0.2-0.1-0.6-0.2-0.8v-0.3c0-0.1-0.2-0.1-0.3-0.2
			c-0.1-0.2-0.1-0.5-0.2-0.7c0,0-0.2-0.2-0.2-0.2c-0.1-0.2,0.1-0.3,0-0.4c-0.1-0.2-0.3-0.4-0.4-0.6c0-0.2,0.1,0,0.1-0.2h-0.1
			c0-0.2-0.1-0.3-0.1-0.5c0-0.1-0.2-0.3-0.3-0.4v-0.3c-0.1-0.1-0.1,0-0.2-0.1v0c-0.1-0.2-0.1-0.4-0.2-0.6c-0.1-0.1-0.3-0.3-0.4-0.5
			C69.5,33.8,69.7,33.7,69.7,33.6z M68.1,37.4c0.1-0.1,0.2-0.1,0.2-0.2c0.2,0,0.2,0,0.2,0.1c0.1,0.2-0.3,0.6-0.1,1
			c0,0.1,0.3,0.6,0.1,0.9c0,0.1-0.2,0.2-0.2,0.3c-0.1,0.2,0.1,0.4,0.1,0.5c0.1,0.2-0.1,0.4-0.1,0.6h-0.2c0-0.3-0.2-0.7-0.3-1h-0.1
			C67.7,38.6,67.7,37.9,68.1,37.4z M65.8,25.1h1.8c-0.1,0.7-0.4,1.5-0.6,2.2c-0.1,0.3-0.1,0.7-0.2,0.9v0.1c-0.2-0.2-0.1-0.6-0.2-1
			C66.3,26.7,66.1,25.6,65.8,25.1L65.8,25.1z M39.5,4.8c0,0,0.1,0.1,0.1,0.1V5c-0.4,0.4-0.7,0.9-1,1.4c-0.1,0.2-0.3,0.3-0.5,0.5
			c0,0.1,0,0.2,0,0.2c0,0.1-0.2,0.1-0.2,0.2c-0.1,0.1-0.1,0.3-0.2,0.5c-0.1,0.1-0.2,0.2-0.3,0.3c0,0,0,0.1,0,0.1
			c0,0-0.2,0.2-0.2,0.2c-0.4,0.5-0.7,1-1.1,1.4c-0.3,0.3-0.4,0.7-0.7,1c-0.6,0.7-1.1,1.4-1.7,2.1c-0.1,0.1-0.1,0.3-0.2,0.4
			c-0.3,0.4-0.7,0.7-1,1.2c-0.1,0.2-0.2,0.4-0.3,0.6c-0.1,0.1-0.4,0.2-0.5,0.3c-0.1-0.1-0.1-0.1-0.2-0.2c0-0.1,0,0,0-0.1
			c0-0.5,0.5-0.8,0.7-1.1c0.5-0.7,1.1-1.4,1.6-2.1c1.1-1.3,2-2.6,3.1-4c0.1-0.2,0.5-0.4,0.6-0.6c0.1-0.2,0.2-0.4,0.4-0.6
			C38.5,6.2,39.1,5.5,39.5,4.8z M38.2,9.9c-0.1,0.5-0.6,0.7-0.8,1.1c-0.6,1-1.2,1.8-1.9,2.6c-0.2,0.3-0.6,1-0.9,1.1c0,0,0,0-0.1,0
			c0,0-0.1-0.1-0.1-0.1c0,0-0.1-0.1-0.1-0.2c0.3-0.2,0.3-0.5,0.5-0.7c0.3-0.4,0.6-0.8,0.9-1.2c0.2-0.3,0.5-0.6,0.7-0.8
			c0-0.1,0-0.1,0-0.2c0.1-0.1,0.1,0,0.2,0c0.4-0.5,1-1,1.3-1.7C38.1,9.9,38.1,9.9,38.2,9.9z M30.6,8.6c0-0.1,0-0.1,0-0.2
			c0.6-0.7,1.1-1.4,1.7-2.1c0.3-0.3,0.7-0.6,0.9-1.1h0.1c0,0,0,0,0,0c-0.1,0.5-0.8,1.1-1,1.4c-0.1,0.2-0.2,0.3-0.3,0.6
			c-0.3,0.5-0.8,0.9-1.1,1.3c-0.5,0.6-0.9,1.3-1.4,1.8c-0.1,0.1-0.1-0.1-0.2-0.1h0C29.6,9.7,30.2,9.1,30.6,8.6z M29.1,13.9
			c0.1-0.4,0.4-0.4,0.6-0.7c0,0-0.1-0.1,0-0.2c0.1-0.2,0.3-0.3,0.4-0.5c0.4-0.6,0.8-1.1,1.3-1.7c0.4-0.5,0.7-1.1,1.2-1.6
			c0.8-1,1.6-2,2.4-2.9C34.9,6.2,34.9,6.1,35,6c0.1-0.1,0.2-0.1,0.3-0.2c0.6-0.8,1.2-1.6,1.9-2.4C37.5,3,38,2.7,38.3,2.3
			c0,0,0.1,0.1,0.1,0.1c-0.1,0.3-0.3,0.5-0.5,0.7c-0.2,0.2-0.1,0.4-0.2,0.6c-0.4,0.6-0.9,1.1-1.3,1.7c-1.3,1.8-2.6,3.6-4.1,5.3
			c-0.5,0.6-1,1.4-1.5,2c-0.3,0.3-0.4,0.7-0.8,0.9c-0.1,0.1-0.1,0-0.1,0c-0.1,0.2-0.4,0.6-0.5,0.7c-0.1,0-0.1,0-0.2,0
			c0,0-0.1-0.1-0.1-0.1C29,14,29.1,14,29.1,13.9z M34.2,22.8h-0.6c-0.5-0.1-1.2-0.4-1.7-0.6h-0.4c0,0-0.1-0.1-0.1-0.1
			c-0.2-0.1-0.6,0-0.7-0.1c-0.1,0-0.1-0.2-0.1-0.2c-0.2-0.1-0.5-0.1-0.7-0.2v-0.1c0,0-0.2,0.1-0.3,0c-0.3-0.1-0.6-0.4-1-0.5v-0.1
			c0.7,0,0.7,0.2,1.1,0.4c0.2,0,0.3,0,0.5,0c0,0,0.1,0.2,0.1,0.2l0.6,0v0.1c0.1,0,0.2,0,0.3,0l0.2,0.2c0.2,0,0.4,0,0.6,0
			c0.1,0,0.3,0.2,0.4,0.2c0.3,0.1,0.5,0,0.7,0.1v0.1c0.2,0.1,0.8,0,1.1,0.1c0.1,0,0.3,0.2,0.4,0.2c0.2,0,0.5,0,0.7,0v0.1
			c0.1,0,0.2,0,0.4,0V23h0.4c0.2,0.1,0.4,0.2,0.7,0.2v0.1c0.2,0.1,0.8,0.2,1,0.3c0.3,0.2,0.5,0.4,0.8,0.6v0.1
			c0.5,0.1,1.6,0.4,1.9,0.6c0.2,0.1,0.3,0.4,0.5,0.5c0.1,0.1,0.3,0.1,0.4,0.1c0.2,0.1,0.3,0.4,0.5,0.5h0.3v0.1c0.1,0,0.2,0,0.2,0
			v0.1c0.1,0,0.2,0,0.3,0c0.2,0.1,0.4,0.6,0.6,0.7h0.1c0.1,0.1,0.2,0.2,0.3,0.3h0.2l0,0.1h0.2c0.1,0,0.1,0.2,0.1,0.2
			c0.1,0.1,0.2,0.1,0.3,0.2c0,0.1,0,0.1,0,0.2c0.1,0.1,0.4,0,0.5,0.1c0.1,0,0.1,0.2,0.1,0.2c0.3,0.3,0.8,0.5,1.3,0.6v0.1
			c0.1,0.1,0.2,0.2,0.3,0.2h0.2c0.3,0.2,0.6,0.6,0.9,0.8h0.5c0.3,0.1,0.5,0.3,0.7,0.5c0.1,0,0.2,0,0.4,0c0,0.1,0,0.2,0,0.2
			c0.2,0.2,0.6,0.4,0.8,0.6c0.2,0.1,0.3,0.5,0.5,0.6c0,0.1,0,0,0,0.1c0,0.1-0.5-0.3-0.6-0.3c-0.2-0.1-0.3-0.4-0.4-0.5h-0.2
			c0,0-0.1-0.2-0.1-0.2h-0.1c-0.1,0-0.1-0.2-0.1-0.2c-0.1,0-0.2,0-0.3,0c-0.2-0.1-0.5-0.2-0.7-0.3c-0.1-0.1-0.2-0.3-0.4-0.3
			c-0.2-0.1-0.4,0-0.6-0.1c-0.2-0.1-0.4-0.4-0.6-0.5c-0.2,0-0.4,0-0.6,0v-0.1c-0.2-0.1-0.3,0-0.5-0.1c0,0,0-0.1,0-0.1h-0.3
			c-0.2-0.1-0.4-0.4-0.6-0.5c-0.1-0.1-0.3,0-0.4,0c-0.3-0.2-0.7-0.5-1-0.7c-0.2-0.1-0.4-0.1-0.6-0.2c-0.1-0.1-0.1-0.2-0.2-0.3
			c0-0.1-0.7-0.4-0.8-0.4v-0.1c0,0-0.1,0-0.1,0c0,0-0.2-0.3-0.2-0.4c-0.1-0.1-0.3,0-0.5-0.1c-0.1,0-0.1-0.2-0.1-0.2
			c-0.1-0.1-0.3,0-0.4-0.1v-0.1c-0.1-0.1-0.2-0.1-0.3-0.1c-0.1,0-0.1-0.2-0.1-0.2c-0.1,0-0.2,0-0.3,0v-0.1h-0.2
			c-0.1,0-0.2-0.2-0.3-0.2c-0.3-0.1-0.5-0.1-0.8-0.2c-0.2-0.1-0.4-0.4-0.7-0.6c0,0,0,0-0.1,0c0-0.4-0.4-0.3-0.6-0.5
			c-0.1-0.2,0-0.3-0.2-0.4v0c0,0-0.1,0.1-0.1,0.1c-0.1-0.1-0.2-0.2-0.3-0.2v-0.1c-0.3-0.1-0.6-0.2-0.9-0.3h-0.4
			C34.7,23,34.4,22.9,34.2,22.8z M33.9,35.4c0.4-0.2,1-0.9,1.3-1.2c0.8-0.8,1.8-1.4,2.5-2.2c1.2,0.4,2.4,0.8,3.6,1.3
			c1.5,0.5,2.9,0.8,4.4,1.3c0.6,0.2,1.2,0.3,1.8,0.5c0.3,0.1,0.7,0.3,1.2,0.3v0H38.3c-0.9,0-3.2-0.2-3.5,0.3h0
			c0.1-0.1,0.1-0.2,0.2-0.2v-0.1L33.9,35.4L33.9,35.4z M18.2,49.4c0.4-0.3,0.8-0.8,1.2-1.2c0.3-0.3,0.7-0.5,1.1-0.8
			c1.9-1.8,3.9-3.4,5.7-5.2c0.3-0.3,0.7-0.5,1-0.8c0-0.1,0.1-0.2,0.1-0.2c0.2-0.2,0.4-0.3,0.6-0.5c0-0.1,0.1-0.1,0.1-0.2
			c0.3-0.2,0.6-0.4,0.9-0.7h26.9c-0.4,0.3-1.4,0.3-1.9,0.5c-1.4,0.4-2.9,0.7-4.4,1.2c-4.8,1.5-10,2.8-14,5.2c-1.6,1-3.3,1.8-4.2,3.5
			h-14C17.5,49.8,17.9,49.6,18.2,49.4z M34.8,51.8h-1.9c-0.3,0-0.6,0.1-0.7,0H32c0-0.1,0,0,0-0.1c0-0.3,0.1-0.3,0.1-0.5
			c0.8-0.2,1.9,0,2.8,0c1.3,0,2.7,0,3.9,0c0.8,0,1.6,0,2.4,0c0.3,0.1,0.6,0.2,1,0.2v0.1c-0.4,0-0.8,0.1-1.1,0.2
			C39,51.8,36.9,51.8,34.8,51.8z M37.9,53.4v0.1c-1.3,0-3.5,0.5-4.6,0c0-0.1,0-0.2,0-0.3C34.9,53,36.4,53.4,37.9,53.4z M33.6,49.5
			c0-0.1,0-0.1,0-0.1c0.3-0.2,1.8-0.1,2.4-0.1h4c0.6,0.1,1.4,0.1,2,0.1v0.1c-0.6,0-1.5,0-2,0.1h-3.9c-0.5,0-1,0-1.5,0
			c-0.3,0-0.5,0.1-0.7,0C33.8,49.6,33.8,49.6,33.6,49.5z M13.9,65.7V54.4h17.5c0.1,1.3,0.2,2.7,0.4,4c0,0.6,0.1,1.1,0.1,1.7
			c0.2,0.7,0,1.6,0.2,2.4c0.2,0.9,0.2,2.3,0.2,3.2H13.9z M61,95.5c-1.4,0-3.9-0.5-4.8,0.2h-0.1c0.7,0.7,3.6,0.2,4.9,0.2v5.2
			c-1,0-1.7-0.2-2.8-0.2h-0.8c-0.4,0.1-0.8,0.2-1.1,0.3c0,0,0,0.1,0,0.1c1.3,0.5,3.2,0.2,4.7,0.1v5.1c-0.9-0.3-3.6-0.1-4.2,0.3
			c0,0,0,0.1,0,0.1c1,0.4,2.8,0.3,4.1,0.2v5c-0.9,0-2.2-0.1-3.1,0.1c-0.4,0.1-0.8,0-1.1,0.2h-0.1v0.1c1.1,0.3,2.8,0.3,4.2,0.3v4.9
			c-1.4,0-3.6-0.1-4.6,0.3c0,0,0,0.1,0,0.1c0.9,0.4,3.3,0.3,4.6,0.3v4.9c-0.4,0-1.1,0-1.5,0.1c-0.7,0.2-1.6-0.1-2.3,0
			c-0.5,0.1-1-0.1-1.3,0.2h-0.1v0.1c1.5,0.3,3.5,0.3,5.3,0.3v4.8c-1,0-2,0-3.1,0c-0.6,0-1.4-0.1-2,0c-0.7,0.1-1.3,0-1.8,0.3h-0.1
			c0.4,0.4,1.2,0.2,1.8,0.3c0.6,0.1,1.4,0,2.1,0c1,0,2,0,3.1,0v4.8c-2.2,0-4.4,0-6.6,0c-0.5,0.1-1,0.3-1.5,0.3
			c0.4,0.4,1.7,0.4,2.5,0.4c1.9,0,3.7,0,5.6,0v4.8h-4.4c-0.7,0-1.6-0.1-2.2,0c-0.6,0.1-1.4-0.1-1.9,0h-1.1c-1.1,0-2.4-0.1-3.3,0.1
			H19.4V68.8h13c0.2,1,0.2,2.5,0.2,3.6v1.7c0.1,0.7,0.1,2.4,0,3.1c-0.1,0.5,0.1,1.2,0,1.6v1c-0.1,0.9-0.2,1.8-0.2,2.7
			c-0.1,0.6-0.1,1.3-0.3,1.9c-0.4,1.4-0.6,3-1.3,4.1c-0.4,0.6-0.8,1.1-1.3,1.6h0v0c1.1-0.1,2.4-0.9,3.2-1.4c1.2-0.7,2.2-1.4,3.3-2.1
			c0.7-0.5,1.3-1.2,1.9-1.7c0.6-0.5,1.4-1.1,1.9-1.7c0.4,0.1,1.3,1.4,1.5,1.8c1.4,1.9,2.9,3.7,3.9,6c0.2,0.5,0.8,2.3,0.4,2.9v0.1
			c0.6-0.4,1.4-1.4,1.9-2c0.5-0.6,1.1-1.2,1.5-1.9c0.9-1.4,1.4-2.9,2-4.6c0.4-1.2,0.3-2.5,0.6-3.7c0-0.4,0-0.9,0-1.3
			c0.1-0.3,0-0.9,0-1.3c0.1-0.7,0.1-2.3,0-3c0-0.9,0-1.8,0-2.7c-0.1-0.5,0-1.2-0.1-1.8c-0.1-1-0.2-1.9-0.2-2.9H61V95.5z M61,65.7
			h-9.3c-0.2,0-0.6,0-0.8,0c-0.1-0.1,0-0.3,0-0.4c-0.2-0.7-0.1-1.5-0.2-2.3c-0.1-0.5,0-1.1-0.1-1.6c-0.4-2.1,0-5.1,0.2-6.9H61V65.7z
			 M61.9,47.4c-0.2,0.7-0.7,1.9-0.7,2.7h-8.9c0.2-0.9,1.2-1.7,1.7-2.3c1.6-2.1,4-3.4,6.2-4.8c0.6-0.4,1.5-0.8,2.1-1.1
			c0.4-0.2,0.8-0.3,1.1-0.5h0c-0.3,1.3-0.6,2.5-1,3.8C62.2,45.9,62.1,46.6,61.9,47.4z M72.5,53.6c-2,0-3.7,0.1-5.9,0.1
			c-0.6,0-1.2,0-1.8,0c-0.1,0-0.2,0.2-0.4,0.1c-0.1,0-0.3-0.1-0.4-0.2v-0.3c1.1,0,2.6,0,3.9,0h1.6c0.8,0.2,1.9,0.1,2.9,0.1V53.6z
			 M79.6,52.1c-1,0-2.1-0.1-2.9,0.1c-0.3,0.1-0.8,0-1.1,0c-2.6,0-5.1,0-7.7,0h-3.1c-0.4,0-1.1,0.1-1.3-0.1h-0.1c0-0.1,0-0.2,0-0.2
			c0.2-0.2,0.9-0.1,1.3-0.1h3.1c2.6,0,5.2,0,7.8,0c0.3,0.1,0.8,0,1.2,0c0.8,0.2,1.8,0.1,2.8,0.1V52.1z M110.1,35.4
			c-0.2,0.1-0.8,0-1.1,0H95.5c0.1-0.1,0.3-0.1,0.5-0.1c0.6-0.2,1.3-0.3,2-0.6c1.9-0.6,3.9-1.1,5.7-1.8c0.7-0.2,1.9-0.5,2.4-0.8h0.1
			c0.2,0.3,0.6,0.5,0.9,0.7c0,0.1,0.1,0.2,0.1,0.2c0.2,0.2,0.5,0.3,0.6,0.5c0,0,0,0.1,0.1,0.2c0.3,0.3,0.7,0.5,1,0.8
			C109.4,34.8,109.7,35.3,110.1,35.4z M116,22c0.4-0.1,0.7-0.3,1-0.5c0.1-0.1,0.3,0,0.4-0.1h0.2c-0.1,0.3-1.2,0.7-1.6,0.7V22z
			 M101.2,28.8c0.1-0.1,0.4,0,0.5-0.1c0.1-0.1,0.1-0.3,0.2-0.4h0.2c0,0,0.1-0.2,0.1-0.2h0.2c0,0,0-0.1,0-0.1c0.1-0.1,0.2,0,0.3-0.1
			c0.1,0,0.1-0.1,0.1-0.2h0.1c0.1-0.1,0.2-0.3,0.3-0.4h0.1c0.1-0.1,0-0.3,0.1-0.3c0.1,0,0.2,0,0.4,0v-0.1c0.1,0,0.2,0,0.2,0v-0.1
			h0.3c0.2-0.1,0.2-0.3,0.4-0.5c0.1-0.1,0.4-0.1,0.5-0.2V26c0.1-0.1,0.2-0.1,0.3-0.1c0,0,0.1-0.2,0.1-0.2c0.3-0.2,1.4-0.6,1.9-0.6
			c0.1-0.4,1.3-0.9,1.9-1v-0.1c0.5,0,1-0.3,1.4-0.5c0.2,0,0.5,0,0.7,0c0.1,0,0.3-0.2,0.4-0.2h0.4V23c0.2,0,0.5,0,0.7,0v-0.1
			c0.2-0.1,0.5,0,0.7-0.1v-0.1c0.1,0,0.2,0,0.4,0v-0.1c0.2,0,0.4,0,0.6,0c0.3-0.2,0.5-0.3,1.1-0.4v0.1c-0.2,0-0.3,0.1-0.4,0.2v0.1
			h-0.3v0.1c-0.1,0-0.3,0-0.4,0c0,0-0.1,0.1-0.1,0.1c-0.2,0.1-0.5,0-0.7,0.1c-0.4,0.2-1,0.4-1.4,0.5h-0.6c-0.2,0.1-0.5,0.2-0.7,0.3
			h-0.4c-0.2,0.1-0.6,0.3-0.9,0.3c0,0.2-0.1,0.3-0.3,0.3v0c0,0-0.1-0.1-0.1-0.1c-0.3,0.1-0.1,0.1-0.2,0.4c-0.1,0.2-0.5,0.3-0.6,0.4
			v0.2c-0.3,0.1-0.6,0.4-0.8,0.6c-0.3,0.1-0.5,0.1-0.8,0.2v0.1c-0.1,0.1-0.3,0-0.5,0.1v0.1c-0.1,0-0.2,0-0.3,0
			c-0.1,0-0.1,0.2-0.1,0.2H106c-0.1,0.1-0.2,0.3-0.3,0.3c-0.3,0.2-1,0.4-1.1,0.8c-0.1,0,0,0-0.1,0c0,0,0,0,0,0.1
			c-0.1,0-0.8,0.4-0.8,0.4c-0.1,0.1,0,0.2-0.1,0.3c-0.2,0.2-0.5,0.1-0.7,0.3c-0.3,0.1-0.6,0.4-0.8,0.6c-0.2,0-0.3,0-0.5,0
			c-0.1,0.1-0.2,0.3-0.3,0.3c-0.2,0.1-0.4,0-0.6,0.1c-0.1,0-0.4,0.3-0.5,0.4l-0.6,0c-0.1,0.1-0.2,0.3-0.3,0.3h-0.1
			c-0.1,0-0.2,0.2-0.3,0.2c-0.1,0-0.2,0-0.4,0c-0.1,0.1-0.3,0.3-0.4,0.4c-0.2,0.1-0.8,0.1-1,0.3c-0.1,0-0.1,0.2-0.1,0.2
			c-0.1,0.1-0.2,0.2-0.3,0.2h-0.2c-0.1,0.1-0.2,0.3-0.3,0.4c-0.2,0.2-0.4,0.4-0.6,0.5c0,0,0-0.1,0-0.1c0.2-0.2,0.3-0.5,0.5-0.6
			c0.2-0.2,0.6-0.3,0.7-0.5c0.1-0.1,0-0.3,0.1-0.3c0.1,0,0.2,0,0.4,0c0.2-0.1,0.4-0.4,0.6-0.5c0.3-0.1,0.6,0,0.8-0.1
			c0.4-0.3,0.6-0.7,1.2-0.8v-0.2c0.5-0.1,0.9-0.3,1.2-0.6C101,29,101.1,28.9,101.2,28.8z M95.1,8.6h0.2c0.2,0.6,0.6,1,0.9,1.5
			c0.7,1.2,1.3,2.4,2,3.6c0.1,0.2,0.1,0.3,0.2,0.5c0.3,0.5,0.6,1,0.9,1.4c0.2,0.3,0.2,0.8,0.5,1c-0.1,0.1,0,0-0.1,0.1c0,0,0,0-0.1,0
			c-0.1-0.3-0.3-0.5-0.5-0.7c-0.2-0.2-0.3-0.6-0.4-0.8c-0.3-0.5-0.6-0.9-0.9-1.4c-0.6-1-1.1-2.1-1.7-3.1C95.8,10.3,94.9,9,95.1,8.6z
			 M99.5,20C99.4,20.1,99.5,20,99.5,20c-0.1,0.1-0.1,0.1-0.2,0.1c-0.2-0.3-0.4-0.6-0.6-0.8c-0.2-0.3-0.2-0.5-0.4-0.8
			c-0.6-1-1.2-2.1-1.9-3.1c-0.3-0.5-0.7-1.6-1.1-1.9c0-0.2,0-0.1,0.1-0.2c0.1,0.1,0.7,1,0.7,1.1c0,0.1,0,0.2,0,0.3c0,0,0.1,0,0.1,0
			c0,0,0.1,0.1,0.1,0.1c0.7,1.1,1.3,2.3,1.9,3.4c0.3,0.4,0.5,0.9,0.7,1.3C99.3,19.6,99.3,19.8,99.5,20z M94.8,16.1
			c0-0.1,0-0.1,0.1-0.2c0.4,0.3,0.7,1.2,1,1.7c0.3,0.5,0.7,1,1,1.5c0.4,0.5,0.5,1.1,0.8,1.7c0.2,0.3,0.5,0.6,0.6,0.9
			c0.1,0.3,0.1,0.5,0.3,0.8c0.1,0.1,0.2,0.2,0.3,0.3c0.2,0.3,0.2,0.7,0.5,1v0.2c0,0-0.1,0-0.1,0c-0.2-0.3-0.4-0.6-0.6-0.9
			c-0.2-0.3-0.3-0.8-0.5-1.1c-0.1-0.1-0.1-0.1-0.2-0.1c-0.4-0.6-0.6-1.2-1-1.8c0,0-0.1,0-0.1,0c-0.1-0.1-0.1-0.3-0.2-0.4
			c0-0.1-0.1-0.1-0.2-0.1c-0.1-0.2-0.1-0.4-0.3-0.6c-0.1,0-0.1-0.1-0.2-0.1c-0.1-0.2-0.2-0.4-0.3-0.6c-0.2-0.3-0.4-0.6-0.6-0.9
			c0-0.2-0.1-0.3-0.1-0.5C95,16.6,94.8,16.2,94.8,16.1z M88.2,39.8h26.3v0c-0.1,0-0.2,0-0.2-0.1c1.2,0.3,1.4,0.8,2.2,1.4
			c0.7,0.6,1.4,1.2,2.1,1.9c0.6,0.5,1.2,1,1.8,1.5c0.6,0.5,1,1.1,1.6,1.5c0.2,0.2,0.5,0.3,0.6,0.5c0.9,0.9,1.8,1.7,2.8,2.5
			c0.4,0.4,0.8,0.8,1.3,1.2v0.1h-14c0,0-0.6-1-0.7-1.1c-0.5-0.7-1.6-1.4-2.3-1.9c-3.4-2.1-7.7-3.4-11.8-4.8
			c-1.1-0.4-2.1-0.5-3.2-0.9c-1.3-0.4-2.8-0.7-4.2-1.1C89.8,40.2,88.9,39.9,88.2,39.8L88.2,39.8z M106,85c0.5,0.6,1.2,1.1,1.9,1.5
			c1.4,1,2.7,2.1,4.4,2.8v0c-1.1,0-2.4-0.1-3.3,0.1h-8c-0.3,0-0.8-0.1-1,0h-0.3c0.1-0.4,0.4-0.7,0.6-1.1c0.5-0.7,0.9-1.4,1.4-2.1
			c0.3-0.5,0.8-0.9,1.1-1.4H106z M103.6,83.9c0.2-0.2,0.3-0.4,0.5-0.6h0.1l0.6,0.6v0H103.6z M86.4,57c1,0,2.1,0,2.9-0.1h4.2
			c0.2,1.6-0.1,3.3-0.1,4.8h-4.7c-0.5,0-1.2-0.2-1.9-0.1c-0.7,0.2-1.7,0-2.5,0c-0.5,0-0.9,0.1-1.4,0.1v-4.8
			C83.9,57.1,85.3,57,86.4,57z M83,56v-1.6h10.3c0.1,0.5,0.2,1.1,0.2,1.6C90,56,86.5,56,83,56z M84.8,62.5h1.1c0.9,0,2,0.1,2.7-0.1
			h4.8c-0.1,1.1-0.2,2.2-0.3,3.2l0,0H83v-3.3C83.6,62.4,84.3,62.4,84.8,62.5z M92.8,68.8c-0.1,1.3-0.2,2.7-0.3,4c-2.2,0-4.4,0-6.6,0
			c-0.8,0.2-2,0.1-2.9,0.1v-4.1H92.8z M86.3,73.7c0.6,0.1,1.4,0,1.9-0.1h4.4c0,1.7-0.1,3.2-0.1,4.9h-3.1c-0.5-0.1-2.2-0.2-2.8-0.1
			c-1,0.2-2.3,0.1-3.5,0.1v-5C84.1,73.6,85.3,73.5,86.3,73.7z M86,79.2c0.5,0.1,2.1,0.3,2.7,0.1c1-0.2,2.4-0.1,3.7-0.1
			c0.1,1.2,0,2.5,0.3,3.6c0.1,0.4,0,1,0.2,1.3v0.1c-1.5,0-2.7-0.1-4.2-0.1h-1.8c-1.1,0.2-2.6,0.1-3.9,0.1v-5H86z M86.3,84.8
			c0.8,0.2,1.8,0.1,2.7,0.1h1c0.8-0.2,1.9-0.1,2.9-0.1c0.1,1.2,0.6,2.3,1.1,3.3c0.2,0.5,0.4,1.1,0.8,1.5v0.1c-1.8,0-3.4,0-5.3,0
			h-2.4c-1.2,0.3-2.8,0.1-4.1,0.1v-5H86.3z M80.6,41.4c2.1,1,4.1,1.9,5.9,3.2c1,0.7,1.8,1.5,2.8,2.3c0.1,0.1,0.2,0.2,0.3,0.4
			c0.6,0.6,1.2,1.2,1.7,1.9c0.2,0.3,0.3,0.6,0.5,0.8v0.1h-8.9C82.1,47.2,81.3,44.3,80.6,41.4z M124.6,139.5h-4.9
			c-0.9,0.2-2,0.1-3.1,0.1h-3.1c-0.7,0-1.5,0-2,0.1H83.9c-0.3,0-0.7-0.1-0.9,0h0v-4.4c3.4,0,6.9,0.1,10.4,0.1h5.1
			c1.4,0.3,3.3,0.1,4.9,0.1h10.7c1.3,0.3,3,0.1,4.4,0.1c2,0,3.9,0.1,6,0.1V139.5z M124.6,133.9c-1.3,0-2.8-0.1-3.9,0.1h-4.1
			c-0.4,0-0.8,0-1.2,0.1h-12.1c-1.2,0-2.5-0.1-3.4,0.1h-5.4c-3.9,0-7.8,0-11.5,0.1v-4.6c0.5,0,0.9,0,1.3,0.1h4.4c1,0,2.3-0.2,3.2,0
			h12.7c0.3,0.1,0.7,0.1,1.1,0.1h12c1,0.2,2.3,0.1,3.5,0.1c1.1,0,2.1,0.1,3.4,0.1V133.9z M124.6,128.3c-0.9,0-1.7,0.1-2.5,0.1
			c-1.1,0-2.3-0.1-3.2,0.1h-12.2c-0.9,0.2-2.1,0.1-3.2,0.1h-5.2c-4.6,0-9.1,0-13.7,0c-0.4,0.1-1,0.1-1.5,0.1v-4.6
			c0.7,0,1.4,0,1.9,0.1c5,0,10.1,0,15.1,0h5.8c1.2,0,2.5-0.1,3.4,0.1h5c3.5,0,7.2,0,10.4,0.2V128.3z M124.6,122.7
			c-0.7,0-1.8,0-2.5,0.2h-12.8c-1,0.2-2.3,0.1-3.4,0.1H100c-4.9,0-9.9,0-14.8,0c-0.6,0.1-1.4,0.1-2.2,0.1v-4.8c1.3,0,2.4,0,3.4,0.2
			H98c0.9,0.2,2.1,0,3.1,0h6.2c0.8,0,1.5,0,2.1,0.1h4.9c3.4,0,7,0,10.3,0V122.7z M124.6,117.3h-15.2c-0.6,0.1-1.2,0.1-1.9,0.1h-6.1
			c-1,0-2.2-0.1-3.1,0H87c-1.2,0.3-2.7,0.2-4.1,0.2v-4.9c1.1,0,2.4,0,3.3,0.2h0.9c0.9,0,1.9-0.1,2.6,0.1h10c0.6,0.1,1.5,0,2.1,0h6.5
			c1.7,0.3,3.9,0.1,5.9,0.1h10.1V117.3z M124.6,111.7h-10.5c-1.8,0-4-0.2-5.5,0.1h-6.3c-0.7,0-1.6-0.1-2.3,0h-9.4
			c-1,0.2-2.4,0.1-3.6,0.1c-1.4,0-2.7,0.1-4.1,0.1v-5h2.9c0.8,0.2,1.7,0.2,2.6,0.2c1.5,0,3.2-0.2,4.5,0.1c3.6,0,7.2,0,10.8,0
			c1.8,0,4-0.2,5.6,0.1h15.1V111.7z M124.6,106.1c-6.9,0-13.8,0.1-20.6,0.1c-3.5,0-6.9,0-10.4,0c-1.3,0.3-3.2,0.1-4.7,0.1
			c-2,0-3.8,0.1-5.9,0.1v-5c2.6,0,4.8,0.2,7.3,0.2h3.1c0.7,0,1.5,0,2,0.1h3.1c2.3,0,4.2,0,6.5,0c1.4,0,3.1-0.2,4.4,0.1h15.1V106.1z
			 M124.6,100.6h-15c-1.2,0.3-2.8,0.1-4.2,0.1c-2.3,0-4.4-0.1-6.5-0.1h-2.9c-1.5,0.3-3.6,0.1-5.3,0.1c-2.6,0-5,0.1-7.6,0.1v-5h3.3
			c0.6,0.1,1.2,0.1,1.9,0.1c1.1,0,2.8-0.2,3.8,0h1.4c1,0,2.1,0.1,2.9-0.1c0.6-0.1,1.3,0.1,1.9,0.1c1.6,0,3.2,0,4.8,0
			c7.2,0,14.3,0.1,21.5,0.1V100.6z M124.6,95h-14.9c-0.8,0.2-1.7,0.1-2.6,0.1h-7.8c-0.9,0.2-2,0.1-3,0.1c-0.9,0-1.9-0.1-2.9-0.1h-1
			c-1,0.2-2.5,0-3.6,0c-2,0-3.8,0.1-5.8,0.1v-5c2.7,0,5,0.1,7.7,0.1c0.7,0,1.5-0.1,2.1-0.1c0.3,0,0.7-0.1,0.9,0h1.7
			c0.1,0,0.7,1,0.8,1.2c0.5,0.6,1.1,1.1,1.5,1.8l0.7,0.7h0c-0.3-1.4,0.2-2.5,0.6-3.6c2.1,0.2,4.6,0.1,6.9,0.1h3
			c0.6,0.1,1.3,0.1,2,0.1h13.5V95z M124.6,89.4h-10.8c-0.1-0.1-0.3-0.6-0.4-0.7c-0.4-0.6-0.6-1.3-0.9-2c-0.2-0.5-0.1-1.1-0.4-1.5
			v-0.1h12.5V89.4z M124.6,83.8h-12.7c-0.2-1.4-0.4-2.8-0.4-4.3h13.2V83.8z M124.6,78.2h-13.2c0-1.4,0-2.9,0-4.3h13.2V78.2z
			 M124.6,72.6h-13.2c0-0.9,0-2,0.1-2.8c0.1-0.3-0.1-0.7,0-0.9v-0.1h13V72.6z M130.1,65.7h-18.3c0.1-1,0.1-2,0.2-3.1h13.8
			c1.2,0.3,2.9,0.1,4.4,0.1V65.7z M130.1,61.3h-3.1c-0.3,0-1.1,0-1.3,0.1H112c0.1-1.4,0.2-2.9,0.4-4.3h12.5c1.5,0.3,3.5,0.1,5.2,0.1
			V61.3z M130.1,55.7c-5.8,0-11.7,0.1-17.6,0.1c0-0.5,0.1-0.9,0.1-1.4h17.5V55.7z M58.3,73.6c0.6,0,1.6,0,1.9-0.3c0.1,0,0,0,0.1,0
			c-0.4-0.1-0.9-0.2-1.3-0.3h-4.4c-0.2,0.1-0.6,0.1-0.8,0.2l-0.1,0c0,0,0.1,0.1,0.1,0.1C55.1,73.6,56.8,73.6,58.3,73.6z M58.3,78.9
			C58.4,78.8,58.3,78.9,58.3,78.9c-0.2-0.2-2.1-0.3-2.3-0.1h-0.1v0.2C56.3,79,58.1,79.1,58.3,78.9z M56.2,84.4c0,0-0.1,0-0.1,0
			l0,0.1c0.5,0.1,2.2,0.4,2.7,0c0,0,0.1,0,0.1,0v-0.1c-0.4-0.2-1.1-0.2-1.8-0.2C56.8,84.3,56.4,84.2,56.2,84.4z M57.2,89.8
			c-0.1,0.1-0.2,0.1-0.3,0.1c0,0-0.1,0-0.1,0c0,0,0,0.1,0,0.1c0.4,0.2,1.5,0.3,1.9,0c0,0,0.1,0,0.1,0V90
			C58.4,89.8,57.8,89.8,57.2,89.8z M47.5,129.3c-0.2,0-0.4-0.1-0.6-0.1c0,0-0.1,0.1-0.1,0.1c0,0,0.1,0.1,0.1,0.1
			C47.1,129.4,47.3,129.4,47.5,129.3C47.5,129.3,47.4,129.3,47.5,129.3z M47.5,134.6c-0.1,0.1-0.1,0.1-0.2,0.1
			c0,0.8,2.1,0.2,2.6,0.1C49.6,134.7,48.1,134.6,47.5,134.6z"/>
	</g>
</g>
</svg>
