<?xml version="1.0" encoding="utf-8"?>
<!-- Generator: Adobe Illustrator 21.0.2, SVG Export Plug-In . SVG Version: 6.00 Build 0)  -->
<svg version="1.1" id="Layer_1" xmlns="http://www.w3.org/2000/svg" xmlns:xlink="http://www.w3.org/1999/xlink" x="0px" y="0px"
	 viewBox="0 0 474.7 67.6" enable-background="new 0 0 474.7 67.6" xml:space="preserve">
<g>
	<path d="M157.6,62.3c0,0,2.5-1,3.3-1c2.4-0.1,2.3,0.5,5.2,1c1.6,0.3,5.9,0.3,7.9-0.1c3.1-0.6,7.5-3.5,9.8-7.2
		c1.3-2.1,1.9-6.8,0.7-10.3c-0.8-2.2-5.6-6-10.9-7.5c-1.3-0.4-9.1-1.9-9.3-6.8c-0.1-1.8,0.5-5.1,7.9-4.5c1.6,0.1,2.8,1.2,2.8,1.2
		s-1,0.7-1.1,1.7c-0.1,0.7-1,4.8,3,6.1c1.2,0.4,2.7,0.5,3.7,0.2c1-0.3,2.4-1.4,2.8-2.5c0.6-1.8,0.5-3.4,0.3-4c-0.5-1.6,1.4-4,1.4-4
		l-4.6-3.6c0,0-0.5,0.5-2.1,0.8c-3.3,0.7-6.3-1-10.2-1c-1.8,0-5.9,0.2-8.2,1c-7.3,2.6-7.1,10.7-7,12.4c0.5,7.8,6.3,9.9,8.5,10.5
		c1.4,0.4,5.2,1.7,8.4,3c3.2,1.3,5.3,2.7,4.5,6.9c-0.6,2.9-6.1,3.2-6.9,2.9c-0.8-0.3-3.3-1.6-3-2.2c0.4-0.7,2-6.1-4.2-7.3
		c-3-0.6-5.7,2-6.2,4.1c-0.3,1.5-0.1,3.6-0.1,4.4c0,0.8-0.7,2-0.7,2L157.6,62.3z"/>
	<path d="M140.4,27.4c0,0,2.8,0.1,5.5-2.4c2.7-2.5,4-5.3,3.8-7.4c-0.1-2.1-0.4-3.7-2.2-5.1c-1.8-1.4-3.4-1.6-4.8-1.5
		c-0.8,0.1-3,1-4.1,2.4c-0.9,1.1-1.1,2.4-1.1,3.9c0,1.5,0.5,3.2,1.4,4c1.3,1.1,2.1,1.6,3.3,2.1c0.5,0.2,1,0.3-0.5,2
		C140.9,26.4,140.4,27.4,140.4,27.4z"/>
	<path d="M107.8,40.4c-0.5-2.1-2.4-9.5,3.6-11.7c3.4-1.3,6.7,0.6,8.4,2c1.9,1.7,3.1,4.3,3.1,4.3l-13.8,8.9
		C109.1,43.9,108.3,42.4,107.8,40.4z M111.2,48.9L130,36.7c0,0,2.6-1.6,3.7-2.7c0.2-0.2,0.5-0.9,0.5-1.1c-0.1-0.9-0.6-2.1-2-4
		c-1.4-1.9-5.1-5.1-7.6-6.1c-6.2-2.5-15.5-1.8-20.3,1.1c-1.7,1-4.8,3.7-6.5,6.1c-1.7,2.4-4,8.4-3,14.6c1.5,9.4,7.1,13.3,10,14.9
		c2.8,1.5,5.8,2.7,9.1,2.9c3.3,0.2,6.6,0.4,10.5-1c3.8-1.3,7.4-4.4,8.6-6.3c1.1-1.9,2.8-4.5,3-5.5c0.4-2-1.8-3-2.7-2.8
		c-0.9,0.3-4,6-6.7,7.2c-2.8,1.3-6.5,2.3-9.1,1.5C113.6,54.4,111.2,48.9,111.2,48.9z"/>
	<path d="M0,58l4.7,4.2c0,0,5-1.1,6.7-0.7c2.7,0.6,7.2,1,8.6,1.3c1.4,0.3,6.5,0.2,9.1-0.3c9.6-1.9,14.4-11.6,15.4-16.2
		c0.4-2,1.9-13-9.4-18.1c-4.2-1.9-14.3-6.5-16-7.8c-1.7-1.2-6.6-9.4-0.3-13.7c4-2.7,10.4,1.7,10.4,1.7s-3.5,4.5-1.4,8.9
		c1,2.3,3.3,5.9,10.4,3.7c3.1-1,4.1-4.5,4.3-7.6c0.2-2.9-2.1-6.7-1.5-7.9c0.3-0.6,0.5-0.9,0.5-0.9l-5.6-4c0,0-2.8,0.5-4.3,0.6
		c-2.8,0.3-12.7-3.4-22.5,1c-5.8,2.6-8,8.8-8.6,11.7C-0.1,16.8-0.3,24.7,4,28.6c4.3,3.9,21.5,10.3,25.5,15.3
		c2.1,2.5,4.4,10.9-2.5,13c-8.3,2.5-10-1-10-1s5.5-9.7-2.4-13.5c-10.3-5-13.6,4.7-13.9,6.5c-0.3,2.1,0,3.9,0,5.7C0.8,56.5,0,58,0,58
		z"/>
	<path d="M88.5,48.8c-0.4-0.6-0.7-1.2-1.6-1.3c-0.9-0.1-2.3,0.9-2.8,1.8c-0.5,0.9-1.9,2.9-3.6,3.7c-1.5,0.7-3.8,2-7.5,1.3
		c-3.4-0.6-4.8-2.3-6.2-3.4c-0.9-0.7-2.6-2.9-2.6-2.9s22.3-14,22.5-14.1c0.2-0.1,0.1-0.5-0.3-1.8c-0.4-1.3-1.5-3.1-2.1-4
		c-0.6-0.9-8.8-11.8-24.4-5.4C51,26.4,50,34,49.3,37.6c-0.9,4.8,1,14.1,4.9,18.1c3.2,3.3,3.9,4.3,8.4,5.8c4.9,1.6,15.4,1.4,19.8-2.3
		c3-2.5,4.4-4.7,5.3-6.5C88.7,50.8,88.8,49.4,88.5,48.8z M62.1,42.9c0,0-1.3-2.3-1.6-4.1c-0.8-4.9,0.9-7.2,2.1-8.5
		c2.5-2.6,8-3.6,11.4,0.1c0.5,0.6,2.2,3.9,2.2,3.9L62.1,42.9z"/>
</g>
<g>
	<polygon points="312.5,48 295.8,21.1 285.8,21.1 285.8,62.4 289.9,62.4 289.9,34.4 306.6,62.4 316.8,62.4 316.8,21.4 312.5,21.4 	
		"/>
	<path d="M259.7,21.1l-15.2,41.3l4,0.1l4.7-11.4h12.5l4.5,11.4h11.8L266,21.1H259.7z M254.8,46.4l4.9-12.4l4.8,12.4H254.8z"/>
	<path d="M230.5,57.6c0,0,0,0.7-0.6,0.8c-0.9,0.2-5.2,0.1-6.1,0.1c-0.9,0-1-1.2-1-1.2l-0.1-30.7c0,0-0.1-0.7,0.9-0.9
		c1-0.2,4.6,0,5.5,0c0.9,0,1,0.3,1,1.2c0,1.4,0,4.9,0,4.9l10.4,0l0-8.9c0,0,0-0.9-0.6-1.3c-0.8-0.5-1.3-0.3-2-0.3
		c-1.5,0-22.9,0.1-22.9,0.1s-1.5-0.1-2.2,0.7c-0.7,0.9-0.5,2.7-0.5,2.7v35.1c0,0,0.1,1.3,1,2c0.9,0.7,1.5,0.5,2.7,0.7
		c1.2,0.2,21.5-0.1,22.3,0c0.2,0,1.1-0.1,2-1.1c0.9-0.9,0.7-2.8,0.7-3.9c0-1.1,0-5.5,0-5.5l-10.6,0.1L230.5,57.6z"/>
	<path d="M460.2,31.7v-7.8c0,0-0.1-1.3-0.9-1.9c-0.8-0.5-1.9-0.7-1.9-0.7H430c0,0-1.1,0-1.9,0.9c-0.8,0.9-0.6,2.4-0.6,2.4v16.6
		c0,0,0,1.3,1.2,2.1c1.1,0.7,2,0.8,2,0.8h17c0,0,0.8,0.3,0.8,0.9c0,0.7,0,12.6,0,12.6s0.4,0.7-0.8,0.9c-0.6,0.1-8.1,0-8.1,0
		s-0.8-0.3-0.8-1c0-0.7,0-5.4,0-5.4h-11.4V60c0,0,0.4,1.1,0.8,1.5c0.4,0.4,1.4,1.1,1.8,1.1c0.4,0,27.2,0,27.2,0s1.4-0.3,2.2-1.1
		c0.8-0.8,0.6-3.1,0.6-3.1V42.1c0,0-0.3-1.3-0.9-1.7c-0.6-0.4-2.2-0.5-2.2-0.5h-16.9c0,0-1.1-0.2-1.2-1.1c-0.1-0.5,0-12.1,0-12.1
		s0.1-0.8,0.6-0.9c0.5-0.1,8.4,0,8.4,0s0.8,0.1,0.9,0.7c0.1,0.5,0.2,5.1,0.2,5.1L460.2,31.7z"/>
	<path d="M401.5,25.8h18.2l-0.1-4.6l-26.1,0.2c0,0-1.8-0.1-2.7,1.3c-0.9,1.4-0.9,2.7-0.9,2.7l-0.1,33.2c0,0,0,2.5,0.4,3.1
		c0.6,0.8,2,0.8,2,0.8h27.3v-4.2c0,0-18.2-0.1-18.5-0.2c-0.3-0.1-0.6-0.6-0.6-0.6s-0.3-13.4-0.1-13.9c0.2-0.5,0.9-0.9,0.9-0.9
		l13.5-0.1l0.1-4.6c0,0-13,0.3-13.4,0c-0.4-0.3-0.5-0.5-0.5-0.5s-0.1-10.9,0-11.2C400.9,26,401.5,25.8,401.5,25.8z"/>
	<path d="M354.5,21.4c-1-0.2-28.6,0-28.6,0v40.9h28.9c0,0,1.2,0.1,1.9-0.7c0.9-1,0.8-3.2,0.8-3.2V25.5c0,0,0.4-2.2-0.6-3.1
		C356.1,21.7,355.5,21.6,354.5,21.4z M347.2,57.7c-0.3,0.7-0.7,0.7-0.7,0.7h-10.2V26.2c0,0,10.2-0.1,10.4,0.1
		c0.4,0.4,0.5,0.6,0.5,0.6S347.6,57,347.2,57.7z"/>
	<polygon points="369.4,62.6 380.5,62.6 380.5,21.4 369.4,21.3 	"/>
</g>
<g>
	<path d="M469.7,57.7c0.8,0,1.6,0.2,2.4,0.6c0.8,0.4,1.4,1,1.9,1.8c0.4,0.8,0.7,1.6,0.7,2.5c0,0.9-0.2,1.7-0.7,2.5
		c-0.4,0.8-1,1.4-1.8,1.8c-0.8,0.4-1.6,0.7-2.5,0.7c-0.9,0-1.7-0.2-2.5-0.7c-0.8-0.4-1.4-1-1.8-1.8c-0.4-0.8-0.7-1.6-0.7-2.5
		c0-0.9,0.2-1.7,0.7-2.5c0.4-0.8,1.1-1.4,1.9-1.8C468.1,57.9,468.9,57.7,469.7,57.7z M469.7,58.5c-0.7,0-1.4,0.2-2,0.5
		c-0.7,0.4-1.2,0.9-1.5,1.5c-0.4,0.7-0.6,1.4-0.6,2.1c0,0.7,0.2,1.4,0.6,2.1c0.4,0.7,0.9,1.2,1.5,1.5c0.7,0.4,1.3,0.5,2.1,0.5
		c0.7,0,1.4-0.2,2.1-0.5c0.7-0.4,1.2-0.9,1.5-1.5c0.4-0.7,0.5-1.3,0.5-2.1c0-0.7-0.2-1.4-0.6-2.1c-0.4-0.7-0.9-1.2-1.6-1.5
		C471.1,58.7,470.4,58.5,469.7,58.5z M467.6,65.4V60h1.8c0.6,0,1.1,0,1.4,0.1c0.3,0.1,0.5,0.3,0.7,0.5c0.2,0.2,0.2,0.5,0.2,0.8
		c0,0.4-0.1,0.7-0.4,1c-0.3,0.3-0.7,0.4-1.1,0.5c0.2,0.1,0.3,0.2,0.5,0.3c0.2,0.2,0.5,0.6,0.8,1.1l0.7,1H471l-0.5-0.8
		c-0.4-0.7-0.7-1.1-0.9-1.2c-0.2-0.1-0.4-0.2-0.7-0.2h-0.5v2.3H467.6z M468.4,62.4h1.1c0.5,0,0.9-0.1,1-0.2c0.2-0.1,0.3-0.3,0.3-0.6
		c0-0.2,0-0.3-0.1-0.4c-0.1-0.1-0.2-0.2-0.4-0.3c-0.2-0.1-0.5-0.1-0.9-0.1h-1V62.4z"/>
</g>
</svg>
